<svg xmlns="http://www.w3.org/2000/svg" width="662.957" height="695.87" viewBox="0 0 662.957 695.87">
  <g id="Work_time-amico" data-name="Work time-amico" transform="translate(-24.61 -43.782)">
    <g id="freepik--Floor--inject-16--inject-84" transform="translate(24.61 314.425)" opacity="0.4">
      <ellipse id="freepik--floor--inject-16--inject-84-2" data-name="freepik--floor--inject-16--inject-84" cx="331.478" cy="212.613" rx="331.478" ry="212.613" fill="#fb875a"/>
    </g>
    <g id="freepik--Shadows--inject-16--inject-84" transform="translate(142.136 298.429)">
      <path id="freepik--Shadow--inject-16--inject-84" d="M107.612,407.791l173.623,100.24a13.534,13.534,0,0,0,12.247,0L579.636,343.317c3.38-1.952,3.38-5.105,0-7.071L406.012,236.02a13.492,13.492,0,0,0-12.247,0L107.612,400.72C104.233,402.672,104.233,405.84,107.612,407.791Z" transform="translate(-105.077 -218.555)" fill="#858585" opacity="0.14"/>
      <ellipse id="freepik--shadow--inject-16--inject-84-2" data-name="freepik--shadow--inject-16--inject-84" cx="72.394" cy="41.804" rx="72.394" ry="41.804" transform="translate(281.178 205.457)" fill="#858585" opacity="0.14"/>
    </g>
    <g id="freepik--Device--inject-16--inject-84" transform="translate(149.492 74.874)">
      <g id="freepik--Laptop--inject-16--inject-84">
        <path id="Path_7282" data-name="Path 7282" d="M117.28,394.653a14.849,14.849,0,0,0,6.93,11.512l150.939,87.172a15.373,15.373,0,0,0,13.873,0L554.81,339.88a13.011,13.011,0,0,0,0-23.024L403.871,229.684a15.344,15.344,0,0,0-13.859,0L124.21,383.141a14.849,14.849,0,0,0-6.93,11.512Z" transform="translate(-107.379 2.299)" fill="#9a9a9a"/>
        <path id="Path_7283" data-name="Path 7283" d="M513.5,302.107a14.906,14.906,0,0,1-6.93,11.512L240.7,467.075a14.381,14.381,0,0,1-6.93,1.655V453.682a14.226,14.226,0,0,0,6.93-1.655L506.572,298.571c3.352-1.937,3.762-4.921,1.244-7.071A14.863,14.863,0,0,1,513.5,302.107Z" transform="translate(-59.126 28.589)" opacity="0.5"/>
        <path id="Path_7284" data-name="Path 7284" d="M123.022,391.146,273.961,478.3a15.373,15.373,0,0,0,13.873,0L553.623,324.861c3.832-2.22,3.832-5.8,0-8L402.683,229.684a15.344,15.344,0,0,0-13.859,0l-265.8,153.457C119.189,385.347,119.189,388.939,123.022,391.146Z" transform="translate(-106.191 2.299)" opacity="0.3"/>
        <path id="Path_7285" data-name="Path 7285" d="M282.112,434.435v15a14.142,14.142,0,0,1-6.93-1.655L124.229,360.627A12.968,12.968,0,0,1,123.522,338c-3.111,2.22-2.828,5.487.707,7.552l150.953,87.2a14.142,14.142,0,0,0,6.93,1.683Z" transform="translate(-107.398 47.85)" opacity="0.7"/>
        <path id="Path_7286" data-name="Path 7286" d="M113.675,450.857c-3.592-2.079-3.394-5.586-3.394-10V232.36a15.33,15.33,0,0,1,6.944-12.007L383,66.9a14.906,14.906,0,0,1,13.435-.255c3.606,2.079,3.408,5.657,3.408,10v208.5a15.33,15.33,0,0,1-6.93,12.007L127.11,450.6a14.906,14.906,0,0,1-13.435.255Z" transform="translate(-110.279 -65.162)" fill="#3d3d3d"/>
        <path id="Path_7287" data-name="Path 7287" d="M399.206,76.642c0-4.412-3.111-6.208-6.93-4L126.517,226.153a13.986,13.986,0,0,0-4.907,5.176l-9.9-5.756h0a14.142,14.142,0,0,1,4.907-5.176L382.405,66.9a14.863,14.863,0,0,1,13.435-.255C399.432,68.722,399.206,72.23,399.206,76.642Z" transform="translate(-109.686 -65.163)" opacity="0.3"/>
        <path id="Path_7288" data-name="Path 7288" d="M117.28,236.19v208.5c0,4.426,3.1,6.208,6.93,4L390.082,295.233a15.33,15.33,0,0,0,6.93-12.007V74.729c0-4.412-3.111-6.208-6.93-4L124.21,224.24A15.344,15.344,0,0,0,117.28,236.19Z" transform="translate(-115.256 -62.466)" opacity="0.5"/>
        <path id="Path_7289" data-name="Path 7289" d="M126.29,404.043a14.934,14.934,0,0,1-12.615-.184c-3.592-2.065-3.394-5.572-3.394-9.984V185.391a13.916,13.916,0,0,1,2.036-6.831l9.9,5.742h0a14.255,14.255,0,0,0-2.036,6.817V399.63C120.166,403.732,122.853,405.57,126.29,404.043Z" transform="translate(-110.279 -18.192)" opacity="0.7"/>
        <path id="Path_7290" data-name="Path 7290" d="M126.042,228.122,382.27,80.167c2.291-1.329,4.158-.255,4.158,2.4V264.609a9.164,9.164,0,0,1-4.158,7.2L126.042,419.72c-2.305,1.329-4.172.255-4.172-2.39V235.321a9.192,9.192,0,0,1,4.172-7.2Z" transform="translate(-105.477 -59.185)" fill="#fafafa"/>
        <path id="Path_7291" data-name="Path 7291" d="M136.159,379.962l246.724-142.44a7.665,7.665,0,0,1,6.93,0l4.115,2.263c1.909,1.1,1.909,2.828,0,4L147.176,386.2a7.693,7.693,0,0,1-6.944,0l-4.073-2.234C134.25,382.862,134.25,381.065,136.159,379.962Z" transform="translate(-100.151 5.888)" fill="#fb875a" opacity="0.71"/>
        <path id="Path_7292" data-name="Path 7292" d="M149.909,388.135l246.71-142.44a7.071,7.071,0,0,1,6.336-.354l64.22,37.081c1.584.919,1.315,2.546-.608,3.649L220.139,428.327a7.071,7.071,0,0,1-6.336.354l-64.5-36.9C147.731,390.864,147.985,389.238,149.909,388.135Z" transform="translate(-94.54 9.227)" fill="#263238" opacity="0.3"/>
        <path id="Path_7293" data-name="Path 7293" d="M361.846,303.94l7.736-4.455c.325-.2.354-.481,0-.651l-7.382-4.243a1.23,1.23,0,0,0-1.131,0l-7.722,4.455c-.325.2-.354.481,0,.65l7.382,4.243a1.245,1.245,0,0,0,1.117,0Zm-11.314-15.429-7.679,4.511c-.339.2-.368.481-.071.651l7.4,4.243a1.244,1.244,0,0,0,1.117,0l7.722-4.455c.325-.2.354-.481.071-.651l-7.4-4.243a1.2,1.2,0,0,0-1.117-.057Zm-24.876,14.411-13.067,7.538c-.325.2-.354.481-.071.651l7.4,4.243a1.2,1.2,0,0,0,1.117,0l13.067-7.538c.339-.2.368-.481.071-.651l-7.382-4.243A1.23,1.23,0,0,0,325.656,302.921Zm13.676-7.891-7.736,4.455c-.325.2-.354.481,0,.65l7.382,4.243a1.273,1.273,0,0,0,1.131,0l7.722-4.455c.325-.2.354-.481,0-.651l-7.382-4.243a1.2,1.2,0,0,0-1.16,0Zm-30.307,17.494-7.722,4.455c-.339.2-.368.481-.071.651l7.382,4.243a1.273,1.273,0,0,0,1.131,0l7.722-4.455c.325-.2.354-.481.071-.65l-7.4-4.243a1.244,1.244,0,0,0-1.16,0Zm-11.314,6.52L289.99,323.5c-.325.2-.354.481,0,.651l7.382,4.243a1.245,1.245,0,0,0,1.117,0l7.736-4.455c.325-.2.354-.481,0-.651l-7.382-4.243a1.23,1.23,0,0,0-1.16,0Zm28.977,17.409L334.41,332c.325-.2.354-.481.071-.651l-7.4-4.243a1.2,1.2,0,0,0-1.117,0l-7.736,4.455c-.325.2-.354.481,0,.651l7.382,4.243a1.273,1.273,0,0,0,1.047,0Zm-11.314,6.52,7.736-4.469c.325-.184.354-.467,0-.636l-7.382-4.243a1.23,1.23,0,0,0-1.131,0l-7.722,4.455c-.325.184-.354.481-.071.651l7.4,4.243a1.3,1.3,0,0,0,1.16,0Zm-11.314,6.519,7.722-4.469c.325-.184.368-.481.071-.636l-7.4-4.243a1.2,1.2,0,0,0-1.117,0l-7.722,4.455c-.325.184-.354.481-.071.651l7.4,4.243a1.244,1.244,0,0,0,1.131,0Zm-11.314,6.52,7.722-4.469c.325-.184.354-.481,0-.651l-7.4-4.243a1.245,1.245,0,0,0-1.117,0l-7.736,4.469c-.325.184-.354.481,0,.65l7.382,4.243a1.273,1.273,0,0,0,1.188,0Zm57.771-45.552L358.24,306c.325-.2.368-.481.071-.651l-7.4-4.243a1.2,1.2,0,0,0-1.117,0l-7.722,4.455c-.325.2-.354.481-.071.651l7.4,4.243a1.245,1.245,0,0,0,1.16,0ZM337.9,329.933l17.225-9.9c.339-.2.368-.481.071-.651l-17.946-10.366a1.2,1.2,0,0,0-1.117,0l-8.881,5.219c-.325.184-.354.467,0,.636l9.5,5.487c.283.17.255.467-.071.651l-7.071,4.115c-.325.2-.368.481-.071.651l7.4,4.243a1.245,1.245,0,0,0,1-.085ZM286.4,325.549,278.676,330c-.325.2-.354.481-.071.65L286,334.9a1.245,1.245,0,0,0,1.117,0l7.722-4.455c.339-.2.368-.481,0-.651l-7.368-4.243a1.2,1.2,0,0,0-1.075,0Zm-11.314,6.52-7.722,4.455c-.339.184-.368.481-.071.651l7.382,4.243a1.329,1.329,0,0,0,1.131,0l7.722-4.469c.325-.184.354-.467.071-.636l-7.4-4.243a1.2,1.2,0,0,0-1.089.014ZM212.6,401.662a1.245,1.245,0,0,0,1.117,0l7.736-4.455c.325-.2.354-.481,0-.651l-7.382-4.243a1.23,1.23,0,0,0-1.131,0l-7.722,4.455c-.325.2-.354.481,0,.651Zm-27.846-17.451-7.722,4.455c-.325.2-.354.481-.071.651l7.4,4.243a1.2,1.2,0,0,0,1.117,0L193.2,389.1c.339-.2.368-.481,0-.651l-7.382-4.243a1.273,1.273,0,0,0-1.032.014Zm14.326,13.067a1.2,1.2,0,0,0,1.117,0l7.722-4.455c.325-.184.354-.481,0-.65l-7.4-4.243a1.3,1.3,0,0,0-1.117,0l-7.722,4.455c-.339.2-.368.481-.071.651Zm31.113,7,7.722-4.455c.339-.184.368-.481.071-.651l-7.382-4.243a1.273,1.273,0,0,0-1.131,0l-7.722,4.469c-.325.184-.354.481,0,.636l7.4,4.243a1.2,1.2,0,0,0,1.1.014Zm-12.4,6.562a1.2,1.2,0,0,0,1.117,0l7.722-4.455c.325-.184.354-.481,0-.651l-7.4-4.243a1.3,1.3,0,0,0-1.117,0l-7.722,4.469c-.339.184-.368.467-.071.636Zm-21.765-33.149-7.679,4.426c-.325.2-.354.481,0,.651l7.382,4.243a1.23,1.23,0,0,0,1.131,0l7.722-4.455c.325-.2.354-.481,0-.651l-7.382-4.243a1.245,1.245,0,0,0-1.117.042Zm56.441-32.6-7.665,4.5c-.325.184-.354.481-.071.651l7.4,4.243a1.244,1.244,0,0,0,1.117,0l7.722-4.469c.339-.184.368-.481.071-.651l-7.4-4.243a1.244,1.244,0,0,0-1.117-.014Zm-45.156,26.078-7.722,4.455c-.339.2-.368.481-.071.651l7.4,4.243a1.2,1.2,0,0,0,1.117,0l7.722-4.455c.325-.184.354-.481,0-.651l-7.4-4.243a1.3,1.3,0,0,0-.99.014Zm56.441-32.527-7.722,4.455c-.325.184-.354.481,0,.651l7.382,4.243a1.245,1.245,0,0,0,1.117,0l7.736-4.469c.325-.184.354-.481,0-.636l-7.382-4.243a1.23,1.23,0,0,0-1.075-.042ZM241.128,351.67l-7.722,4.469c-.339.184-.368.481,0,.651l7.382,4.243a1.273,1.273,0,0,0,1.131,0l7.722-4.469c.325-.184.354-.481.071-.651l-7.4-4.243a1.245,1.245,0,0,0-1.075-.042Zm-11.314,6.52-7.736,4.469c-.325.184-.354.481,0,.636l7.382,4.243a1.23,1.23,0,0,0,1.131,0l7.722-4.455c.325-.184.354-.481,0-.651l-7.382-4.243a1.245,1.245,0,0,0-.976-.042Zm-11.314,6.52-7.722,4.469c-.325.184-.354.467,0,.636l7.4,4.243a1.2,1.2,0,0,0,1.117,0l7.722-4.455c.339-.184.368-.481.071-.65l-7.382-4.243a1.273,1.273,0,0,0-1.047-.042Zm51.548,4.37,7.722-4.455c.325-.184.368-.481.071-.651l-7.4-4.243a1.244,1.244,0,0,0-1.117,0l-7.722,4.469c-.325.184-.354.481,0,.636l7.4,4.243a1.2,1.2,0,0,0,1.2-.042ZM375.38,274.142l-7.736,4.455c-.325.2-.354.481,0,.651l7.382,4.243a1.23,1.23,0,0,0,1.131,0l7.722-4.455c.325-.2.354-.481,0-.651l-7.382-4.243a1.245,1.245,0,0,0-.962-.042ZM361.7,282.033l-7.722,4.455c-.325.2-.354.481-.071.651l7.4,4.243a1.245,1.245,0,0,0,1.117,0l7.722-4.455c.339-.2.368-.481.071-.651l-7.382-4.243a1.272,1.272,0,0,0-.976-.042Zm25.116-14.467-7.722,4.455c-.325.2-.368.481-.071.65l7.4,4.243a1.2,1.2,0,0,0,1.117,0l7.722-4.455c.325-.2.354-.481,0-.651l-7.382-4.243a1.3,1.3,0,0,0-1.061,0Zm-62.409,57.983,7.736-4.455c.325-.184.354-.481,0-.651l-7.382-4.243a1.329,1.329,0,0,0-1.131,0l-7.722,4.469c-.325.184-.354.467,0,.636l7.4,4.243a1.2,1.2,0,0,0,1.1,0ZM399.2,261.018a1.329,1.329,0,0,0-1.131,0l-7.722,4.469c-.325.184-.354.467,0,.636l7.4,4.243a1.2,1.2,0,0,0,1.117,0l7.722-4.455c.339-.184.368-.481.071-.651ZM281.448,362.531l7.736-4.469c.325-.184.354-.481,0-.651l-7.382-4.243a1.273,1.273,0,0,0-1.131,0l-7.722,4.469c-.325.184-.354.481-.071.651l7.4,4.243a1.244,1.244,0,0,0,1.216,0ZM419.9,282.585l7.722-4.455c.339-.184.368-.481.071-.651l-7.283-4.257a1.329,1.329,0,0,0-1.131,0l-7.722,4.469c-.325.184-.354.467-.071.636l7.4,4.243a1.2,1.2,0,0,0,1.061.014Zm-21.85.424,7.736-4.455c.325-.184.354-.481,0-.651l-7.382-4.243a1.329,1.329,0,0,0-1.131,0l-7.722,4.455c-.325.2-.354.481-.071.65l7.4,4.243a1.2,1.2,0,0,0,1.216,0Zm11.7-15.9a1.3,1.3,0,0,0-1.117,0l-7.736,4.469c-.325.184-.354.467,0,.636l7.382,4.243a1.231,1.231,0,0,0,1.131,0l7.722-4.455c.325-.184.354-.481.071-.651Zm2.376-1.414,17.989,10.352a1.231,1.231,0,0,0,1.131,0l7.722-4.455c.325-.184.354-.481.071-.651l-17.961-10.352a1.245,1.245,0,0,0-1.117,0l-7.722,4.469c-.311.226-.311.523-.071.679Zm-26.078,14.453-7.722,4.455c-.325.2-.354.481,0,.651l7.4,4.243a1.2,1.2,0,0,0,1.117,0l7.722-4.455c.339-.2.368-.481.071-.651l-7.4-4.243a1.244,1.244,0,0,0-1.145.042Zm-84.966,49.059-7.722,4.455c-.339.2-.368.481-.071.651l7.382,4.243a1.273,1.273,0,0,0,1.131,0l7.722-4.455c.325-.2.354-.481.071-.65l-7.4-4.243a1.245,1.245,0,0,0-1.075.042ZM407.5,289.1a1.2,1.2,0,0,0,1.117,0l7.722-4.455c.325-.2.354-.481.071-.651l-7.4-4.243a1.244,1.244,0,0,0-1.117,0l-7.722,4.455c-.325.2-.368.481-.071.65ZM312.4,322.72l-7.722,4.455c-.325.2-.354.481-.071.651l7.4,4.243a1.2,1.2,0,0,0,1.117,0l7.722-4.455c.325-.2.368-.481,0-.651l-7.4-4.243a1.245,1.245,0,0,0-1.047,0Zm-88.488,72.422a1.273,1.273,0,0,0,1.131,0l7.722-4.455c.325-.2.354-.481.071-.651l-7.4-4.243a1.245,1.245,0,0,0-1.117,0l-7.722,4.455c-.339.2-.368.481,0,.651Zm-13.124-13.76-7.722,4.469c-.325.184-.354.481,0,.636l7.4,4.243a1.2,1.2,0,0,0,1.117,0l7.722-4.455c.339-.184.368-.481.071-.651L212,381.382a1.329,1.329,0,0,0-1.2.014Zm25.541,7.2,7.722-4.455c.339-.2.368-.481,0-.651l-7.4-4.243a1.245,1.245,0,0,0-1.117,0l-7.722,4.455c-.325.2-.354.481-.071.651l7.4,4.243a1.2,1.2,0,0,0,1.188.014Zm11.314-6.52,7.736-4.455c.325-.184.354-.481,0-.651L248,372.713a1.273,1.273,0,0,0-1.131,0l-7.722,4.455c-.325.2-.354.481,0,.651l7.382,4.243a1.2,1.2,0,0,0,1.089.057Zm11.314-6.52,7.722-4.455c.325-.184.354-.481,0-.651l-7.4-4.243a1.3,1.3,0,0,0-1.117,0l-7.722,4.469c-.339.184-.368.481-.071.636l7.382,4.243a1.23,1.23,0,0,0,1.16.014Zm-36.77-.679-7.835,4.427c-.325.184-.354.481,0,.636l7.382,4.243a1.23,1.23,0,0,0,1.131,0l7.722-4.455c.325-.184.354-.481,0-.651l-7.382-4.243a1.245,1.245,0,0,0-1.117.057Zm11.314-6.519-7.722,4.469c-.339.184-.368.481,0,.651l7.4,4.243a1.245,1.245,0,0,0,1.117,0l7.722-4.469c.325-.184.354-.481.071-.651l-7.4-4.243a1.245,1.245,0,0,0-1.315.014Zm45.156-26.064-7.849,4.483c-.325.2-.354.481-.071.651l7.4,4.243a1.245,1.245,0,0,0,1.117,0l7.722-4.455c.339-.2.368-.481,0-.651l-7.4-4.243a1.2,1.2,0,0,0-1.047-.014Zm-11.314,6.52-7.722,4.455c-.339.184-.368.481-.071.651l7.382,4.243a1.329,1.329,0,0,0,1.131,0l7.722-4.455c.325-.2.354-.481.071-.651l-7.4-4.243a1.2,1.2,0,0,0-1.216.014Zm22.628-13.039-7.722,4.455c-.325.2-.354.481,0,.651l7.382,4.243a1.244,1.244,0,0,0,1.117,0l7.736-4.455c.325-.2.354-.481,0-.651l-7.382-4.243a1.23,1.23,0,0,0-1.287.014ZM244.82,361.824l-7.722,4.469c-.325.184-.354.481-.071.651l7.4,4.243a1.245,1.245,0,0,0,1.117,0l7.722-4.469c.339-.184.368-.481.071-.65l-7.4-4.243a1.244,1.244,0,0,0-1.273.014Zm11.314-6.505-7.722,4.455c-.325.184-.354.481,0,.65l7.382,4.243a1.244,1.244,0,0,0,1.117,0l7.736-4.469c.325-.184.354-.481,0-.636l-7.382-4.243a1.231,1.231,0,0,0-1.315.014Zm-14.411,42.426,7.736-4.469c.325-.184.354-.481,0-.651l-7.382-4.243a1.273,1.273,0,0,0-1.131,0l-7.722,4.469c-.325.184-.354.481,0,.65l7.382,4.243a1.245,1.245,0,0,0,.933.042ZM182.2,394.916l-7.4-4.243a1.2,1.2,0,0,0-1.117,0L165.85,395.2c-.339.2-.368.481,0,.651l7.4,4.243a1.245,1.245,0,0,0,1.117,0l7.722-4.455a.406.406,0,0,0-.071-.665Zm14.708,3.691-7.382-4.243a1.245,1.245,0,0,0-1.117,0l-11.894,6.859c-.325.2-.354.481,0,.651l7.382,4.243a1.245,1.245,0,0,0,1.117,0l11.894-6.859a.5.5,0,0,0-.184-.594Zm-25.739-12.12-7.4-4.243a1.245,1.245,0,0,0-1.117,0l-9.687,5.53c-.325.184-.368.481,0,.651l7.4,4.243a1.245,1.245,0,0,0,1.117,0l9.5-5.487c.255-.184.283-.467,0-.636Zm7.283-4.243a1.273,1.273,0,0,0,1.131,0l7.481-4.37c.325-.184.354-.481.071-.636l-7.4-4.243a1.2,1.2,0,0,0-1.117,0l-7.736,4.455c-.325.184-.354.481,0,.651Zm31.806,20.8-7.382-4.243a1.231,1.231,0,0,0-1.131,0l-14.849,8.57c-.325.2-.368.481,0,.651l7.4,4.243a1.244,1.244,0,0,0,1.117,0l14.849-8.57C210.525,403.5,210.553,403.218,210.256,403.048Zm5.2,9.178-7.382-4.243a1.245,1.245,0,0,0-1.117,0l-9.518,5.487c-.325.2-.354.481,0,.651l7.382,4.243a1.245,1.245,0,0,0,1.117,0l9.518-5.487c.269-.2.3-.481,0-.65Zm46.754-78.348a1.3,1.3,0,0,0,1.117,0l7.722-4.469c.339-.184.368-.467.071-.636l-7.382-4.243a1.231,1.231,0,0,0-1.131,0l-7.665,4.427c-.325.184-.354.481-.071.65ZM239.587,346.9a1.273,1.273,0,0,0,1.131,0l7.722-4.469c.325-.184.354-.481,0-.651l-7.382-4.243a1.245,1.245,0,0,0-1.117,0L232.318,342c-.325.184-.354.481,0,.651ZM189.524,375.81a1.245,1.245,0,0,0,1.117,0l7.722-4.469c.325-.184.354-.467,0-.636l-7.4-4.243a1.2,1.2,0,0,0-1.117,0l-7.722,4.455c-.325.184-.368.481-.071.651Zm61.363-35.426a1.245,1.245,0,0,0,1.117,0l7.722-4.469c.325-.184.354-.481.071-.636l-7.4-4.243a1.2,1.2,0,0,0-1.117,0l-7.651,4.412c-.339.184-.368.481,0,.651Zm-22.627,13.039a1.245,1.245,0,0,0,1.117,0l7.722-4.469c.339-.184.368-.481.071-.651l-7.382-4.243a1.273,1.273,0,0,0-1.131,0L221,348.516c-.325.184-.354.481,0,.651ZM221,412.679a1.245,1.245,0,0,0-1.117,0l-11.879,6.859c-.325.2-.354.481-.071.651l7.4,4.243a1.245,1.245,0,0,0,1.117,0l11.879-6.859c.339-.2.368-.481,0-.651Zm-8.867-49.894a1.273,1.273,0,0,0,1.131,0l7.722-4.455c.325-.2.354-.481,0-.65l-7.382-4.243a1.2,1.2,0,0,0-1.117,0l-7.736,4.455c-.325.2-.354.481,0,.651Zm-11.314,6.52a1.3,1.3,0,0,0,1.117,0l7.722-4.455c.339-.2.368-.481.071-.651l-7.382-4.243a1.23,1.23,0,0,0-1.131,0l-7.722,4.455c-.325.2-.354.481,0,.651Zm229.344-77.386a1.3,1.3,0,0,0-1.117,0l-19.021,11c-.325.2-.354.481,0,.651l7.382,4.243a1.23,1.23,0,0,0,1.131,0l19.007-10.974c.325-.184.368-.481.071-.651ZM405.22,306.33a1.273,1.273,0,0,0-1.131,0l-7.722,4.5c-.325.2-.354.481-.071.651l7.4,4.243a1.2,1.2,0,0,0,1.117,0l7.722-4.455c.339-.2.368-.481.071-.651ZM252.838,391.268l7.722-4.469c.325-.184.354-.481.071-.651l-7.4-4.243a1.245,1.245,0,0,0-1.117,0L244.4,386.36c-.339.184-.368.481,0,.651l7.382,4.243a1.273,1.273,0,0,0,1.061.014Zm129.8-71.9a1.2,1.2,0,0,0-1.117,0l-7.778,4.5c-.325.2-.354.481,0,.65l7.382,4.243a1.273,1.273,0,0,0,1.131,0l7.722-4.455c.325-.2.354-.481,0-.651Zm58.831-33.941a1.329,1.329,0,0,0-1.131,0l-7.722,4.469c-.325.184-.354.481-.071.636l7.4,4.243a1.2,1.2,0,0,0,1.117,0l7.722-4.455c.339-.184.368-.481.071-.651Zm18.682-2.305L442.188,272.77a1.244,1.244,0,0,0-1.117,0l-7.722,4.469c-.325.184-.354.481,0,.636L451.3,288.242a1.23,1.23,0,0,0,1.131,0l7.722-4.455A.375.375,0,0,0,460.148,283.122Zm-119.7,60.571a1.273,1.273,0,0,0-1.131,0l-9.5,5.487c-.325.2-.354.481,0,.651l7.382,4.243a1.244,1.244,0,0,0,1.117,0l9.518-5.487c.325-.184.354-.481,0-.65Zm28.525-16.461a1.231,1.231,0,0,0-1.131,0l-11.879,6.859c-.325.184-.354.481-.071.65l7.4,4.243a1.244,1.244,0,0,0,1.117,0l11.894-6.859c.325-.2.354-.481,0-.651Zm-54.631,31.594a1.244,1.244,0,0,0-1.117,0l-63.64,36.77c-.325.2-.354.481-.071.651l7.4,4.243a1.245,1.245,0,0,0,1.117,0l63.64-36.77c.325-.184.354-.481.071-.651ZM247.2,397.589a1.2,1.2,0,0,0-1.117,0l-9.518,5.53c-.339.184-.368.481,0,.651l7.382,4.243a1.273,1.273,0,0,0,1.131,0l9.5-5.5c.325-.184.354-.467.071-.636Zm80.214-46.316a1.2,1.2,0,0,0-1.117,0l-9.5,5.487c-.325.184-.368.481-.071.65l7.4,4.243a1.244,1.244,0,0,0,1.117,0l9.5-5.487c.339-.2.368-.481.071-.65Zm-93.338,53.868a1.273,1.273,0,0,0-1.131,0l-9.5,5.487c-.325.2-.354.481,0,.651l7.382,4.243a1.2,1.2,0,0,0,1.117,0l9.518-5.487c.325-.184.354-.481,0-.651ZM353.5,336.184a1.244,1.244,0,0,0-1.117,0l-9.5,5.5c-.339.184-.368.467-.071.636l7.382,4.243a1.231,1.231,0,0,0,1.131,0l9.5-5.487c.325-.184.354-.481.071-.65Zm40.418-23.363a1.2,1.2,0,0,0-1.117,0l-7.75,4.526c-.325.2-.368.481,0,.651l7.4,4.243a1.244,1.244,0,0,0,1.117,0l7.722-4.455c.325-.2.354-.481.071-.651Zm25.286-17.649,7.736-4.455c.325-.2.354-.481,0-.65l-7.382-4.243a1.329,1.329,0,0,0-1.131,0l-7.722,4.455c-.325.2-.354.481,0,.651l7.382,4.243a1.2,1.2,0,0,0,1.117.028Zm-46.061,2.22,7.665-4.37c.325-.2.354-.481,0-.651l-7.4-4.243a1.244,1.244,0,0,0-1.117,0l-7.722,4.455c-.339.2-.368.481-.071.651l7.382,4.243a1.23,1.23,0,0,0,1.259-.057Zm-30,41.691,22.627-13.025c.325-.2.354-.481.071-.651l-7.4-4.243a1.2,1.2,0,0,0-1.117,0L334.707,334.2c-.325.184-.354.467,0,.636l7.4,4.243a1.2,1.2,0,0,0,1.047.028Zm63.64-37.349a1.2,1.2,0,0,0,1.117,0l7.722-4.455c.339-.2.368-.481.071-.651l-7.4-4.243a1.244,1.244,0,0,0-1.117,0l-7.722,4.455c-.325.2-.354.481-.071.65Zm-9.433-6.138,7.722-4.455c.325-.2.354-.481.071-.651l-7.4-4.243a1.244,1.244,0,0,0-1.117,0L388.9,290.7c-.325.2-.354.481,0,.65l7.382,4.243a1.23,1.23,0,0,0,1.089.028Zm-65.492,50.035,7.722-4.455c.325-.2.368-.481,0-.651l-7.4-4.243a1.244,1.244,0,0,0-1.117,0l-7.722,4.455c-.325.2-.354.481-.071.651l7.4,4.243a1.2,1.2,0,0,0,1.188,0Zm49.978-29.458a1.244,1.244,0,0,0,1.117,0l7.736-4.455c.325-.2.354-.481,0-.65l-7.382-4.243a1.23,1.23,0,0,0-1.131,0l-7.722,4.455c-.325.2-.354.481,0,.651ZM275.409,378.229l7.736-4.469c.325-.184.354-.467,0-.636l-7.382-4.243a1.23,1.23,0,0,0-1.131,0l-7.722,4.455c-.325.184-.354.481-.071.651l7.4,4.243A1.244,1.244,0,0,0,275.409,378.229Zm11.314-6.52,7.722-4.455c.325-.2.354-.481.071-.651l-7.4-4.243a1.2,1.2,0,0,0-1.117,0l-7.722,4.455c-.339.184-.368.481-.071.651l7.382,4.243a1.33,1.33,0,0,0,1.117,0ZM264.1,384.748l7.821-4.469c.339-.184.368-.481.071-.636l-7.4-4.243a1.2,1.2,0,0,0-1.117,0l-7.722,4.455c-.325.184-.354.481-.071.651l7.4,4.243a1.245,1.245,0,0,0,1.047,0Zm45.156-26.078,7.736-4.455c.325-.2.354-.481,0-.651l-7.382-4.243a1.273,1.273,0,0,0-1.131,0l-7.637,4.511c-.325.2-.354.481-.071.65l7.4,4.243a1.245,1.245,0,0,0,1.117-.057Zm-11.314,6.52,7.722-4.455c.325-.2.368-.481.071-.651l-7.4-4.243a1.2,1.2,0,0,0-1.117,0l-7.722,4.455c-.325.2-.354.481-.071.651l7.4,4.243a1.245,1.245,0,0,0,1.174-.042Zm22.628-13.039,7.722-4.455c.325-.2.354-.481.071-.65l-7.4-4.243a1.245,1.245,0,0,0-1.117,0l-7.736,4.455c-.325.2-.354.481,0,.651l7.382,4.243a1.23,1.23,0,0,0,1.089,0Zm61.66-90.68a1.245,1.245,0,0,0,1.117,0L391.078,257c.325-.184.354-.481,0-.651l-1.966-1.131a1.2,1.2,0,0,0-1.117,0l-7.722,4.455c-.325.2-.368.481-.071.65ZM326.109,297.01a1.329,1.329,0,0,0,1.131,0l7.722-4.469c.325-.184.354-.467,0-.636l-7.382-4.243a1.2,1.2,0,0,0-1.117,0l-7.736,4.455c-.325.184-.354.481,0,.651Zm22.627-13.039a1.244,1.244,0,0,0,1.117,0l7.722-4.455c.339-.2.368-.481.071-.651l-7.382-4.243a1.23,1.23,0,0,0-1.131,0l-7.722,4.455c-.325.2-.354.481-.071.651Zm-36.374,20.987a1.273,1.273,0,0,0,1.131,0l7.722-4.469c.325-.184.354-.481.071-.651l-7.4-4.243a1.2,1.2,0,0,0-1.117,0l-7.806,4.5c-.339.184-.368.481-.071.651Zm25.088-14.467a1.245,1.245,0,0,0,1.117,0l7.722-4.455c.325-.2.354-.481.071-.651l-7.4-4.243a1.2,1.2,0,0,0-1.117,0l-7.722,4.455c-.339.2-.368.481-.071.651ZM289.792,318a1.2,1.2,0,0,0,1.117,0l7.722-4.455c.339-.184.368-.481,0-.651l-7.4-4.243a1.244,1.244,0,0,0-1.117,0l-7.722,4.469c-.325.184-.354.481-.071.636Zm11.314-6.52a1.244,1.244,0,0,0,1.117,0l7.736-4.469c.325-.184.354-.481,0-.651l-7.382-4.243a1.272,1.272,0,0,0-1.131,0l-7.722,4.469c-.325.184-.354.481,0,.651ZM359.6,274.51a1.23,1.23,0,0,0,1.131,0l7.722-4.455c.325-.184.354-.481.071-.651l-1.966-1.131a1.23,1.23,0,0,0-1.131,0l-7.722,4.455c-.325.184-.354.481-.071.651Zm33.941-19.559a1.273,1.273,0,0,0,1.131,0l7.722-4.469c.325-.184.354-.481.071-.651L400.5,248.7a1.23,1.23,0,0,0-1.131,0l-7.722,4.455c-.325.2-.354.481-.071.651Zm15.556,8.966a1.23,1.23,0,0,0,1.131,0l7.722-4.455c.325-.184.354-.481,0-.651l-7.382-4.243a1.244,1.244,0,0,0-1.117,0l-7.778,4.511c-.325.184-.354.481,0,.636Zm21.51,24.763,7.722-4.455c.325-.184.354-.481,0-.651l-7.4-4.243a1.244,1.244,0,0,0-1.117,0l-7.722,4.469c-.339.184-.368.467-.071.636l7.382,4.243a1.23,1.23,0,0,0,1.1,0Zm-59.694-20.69a1.2,1.2,0,0,0,1.117,0l7.722-4.455c.339-.184.368-.481.071-.651l-1.966-1.131a1.2,1.2,0,0,0-1.117,0l-7.75,4.4c-.325.184-.354.481,0,.651Zm-92.49,56.569a1.23,1.23,0,0,0,1.131,0l7.722-4.455c.325-.184.354-.481.071-.65l-7.4-4.243a1.3,1.3,0,0,0-1.117,0l-7.722,4.469c-.339.184-.368.467,0,.636Z" transform="translate(-92.704 10.804)" fill="#fb875a"/>
        <path id="Path_7294" data-name="Path 7294" d="M361.846,303.94l7.736-4.455c.325-.2.354-.481,0-.651l-7.382-4.243a1.23,1.23,0,0,0-1.131,0l-7.722,4.455c-.325.2-.354.481,0,.65l7.382,4.243a1.245,1.245,0,0,0,1.117,0Zm-11.314-15.429-7.679,4.511c-.339.2-.368.481-.071.651l7.4,4.243a1.244,1.244,0,0,0,1.117,0l7.722-4.455c.325-.2.354-.481.071-.651l-7.4-4.243a1.2,1.2,0,0,0-1.117-.057Zm-24.876,14.411-13.067,7.538c-.325.2-.354.481-.071.651l7.4,4.243a1.2,1.2,0,0,0,1.117,0l13.067-7.538c.339-.2.368-.481.071-.651l-7.382-4.243A1.23,1.23,0,0,0,325.656,302.921Zm13.676-7.891-7.736,4.455c-.325.2-.354.481,0,.65l7.382,4.243a1.273,1.273,0,0,0,1.131,0l7.722-4.455c.325-.2.354-.481,0-.651l-7.382-4.243a1.2,1.2,0,0,0-1.16,0Zm-30.307,17.494-7.722,4.455c-.339.2-.368.481-.071.651l7.382,4.243a1.273,1.273,0,0,0,1.131,0l7.722-4.455c.325-.2.354-.481.071-.65l-7.4-4.243a1.244,1.244,0,0,0-1.16,0Zm-11.314,6.52L289.99,323.5c-.325.2-.354.481,0,.651l7.382,4.243a1.245,1.245,0,0,0,1.117,0l7.736-4.455c.325-.2.354-.481,0-.651l-7.382-4.243a1.23,1.23,0,0,0-1.16,0Zm28.977,17.409L334.41,332c.325-.2.354-.481.071-.651l-7.4-4.243a1.2,1.2,0,0,0-1.117,0l-7.736,4.455c-.325.2-.354.481,0,.651l7.382,4.243a1.273,1.273,0,0,0,1.047,0Zm-11.314,6.52,7.736-4.469c.325-.184.354-.467,0-.636l-7.382-4.243a1.23,1.23,0,0,0-1.131,0l-7.722,4.455c-.325.184-.354.481-.071.651l7.4,4.243a1.3,1.3,0,0,0,1.16,0Zm-11.314,6.519,7.722-4.469c.325-.184.368-.481.071-.636l-7.4-4.243a1.2,1.2,0,0,0-1.117,0l-7.722,4.455c-.325.184-.354.481-.071.651l7.4,4.243a1.244,1.244,0,0,0,1.131,0Zm-11.314,6.52,7.722-4.469c.325-.184.354-.481,0-.651l-7.4-4.243a1.245,1.245,0,0,0-1.117,0l-7.736,4.469c-.325.184-.354.481,0,.65l7.382,4.243a1.273,1.273,0,0,0,1.188,0Zm57.771-45.552L358.24,306c.325-.2.368-.481.071-.651l-7.4-4.243a1.2,1.2,0,0,0-1.117,0l-7.722,4.455c-.325.2-.354.481-.071.651l7.4,4.243a1.245,1.245,0,0,0,1.16,0ZM337.9,329.933l17.225-9.9c.339-.2.368-.481.071-.651l-17.946-10.366a1.2,1.2,0,0,0-1.117,0l-8.881,5.219c-.325.184-.354.467,0,.636l9.5,5.487c.283.17.255.467-.071.651l-7.071,4.115c-.325.2-.368.481-.071.651l7.4,4.243a1.245,1.245,0,0,0,1-.085ZM286.4,325.549,278.676,330c-.325.2-.354.481-.071.65L286,334.9a1.245,1.245,0,0,0,1.117,0l7.722-4.455c.339-.2.368-.481,0-.651l-7.368-4.243a1.2,1.2,0,0,0-1.075,0Zm-11.314,6.52-7.722,4.455c-.339.184-.368.481-.071.651l7.382,4.243a1.329,1.329,0,0,0,1.131,0l7.722-4.469c.325-.184.354-.467.071-.636l-7.4-4.243a1.2,1.2,0,0,0-1.089.014ZM212.6,401.662a1.245,1.245,0,0,0,1.117,0l7.736-4.455c.325-.2.354-.481,0-.651l-7.382-4.243a1.23,1.23,0,0,0-1.131,0l-7.722,4.455c-.325.2-.354.481,0,.651Zm-27.846-17.451-7.722,4.455c-.325.2-.354.481-.071.651l7.4,4.243a1.2,1.2,0,0,0,1.117,0L193.2,389.1c.339-.2.368-.481,0-.651l-7.382-4.243a1.273,1.273,0,0,0-1.032.014Zm14.326,13.067a1.2,1.2,0,0,0,1.117,0l7.722-4.455c.325-.184.354-.481,0-.65l-7.4-4.243a1.3,1.3,0,0,0-1.117,0l-7.722,4.455c-.339.2-.368.481-.071.651Zm31.113,7,7.722-4.455c.339-.184.368-.481.071-.651l-7.382-4.243a1.273,1.273,0,0,0-1.131,0l-7.722,4.469c-.325.184-.354.481,0,.636l7.4,4.243a1.2,1.2,0,0,0,1.1.014Zm-12.4,6.562a1.2,1.2,0,0,0,1.117,0l7.722-4.455c.325-.184.354-.481,0-.651l-7.4-4.243a1.3,1.3,0,0,0-1.117,0l-7.722,4.469c-.339.184-.368.467-.071.636Zm-21.765-33.149-7.679,4.426c-.325.2-.354.481,0,.651l7.382,4.243a1.23,1.23,0,0,0,1.131,0l7.722-4.455c.325-.2.354-.481,0-.651l-7.382-4.243a1.245,1.245,0,0,0-1.117.042Zm56.441-32.6-7.665,4.5c-.325.184-.354.481-.071.651l7.4,4.243a1.244,1.244,0,0,0,1.117,0l7.722-4.469c.339-.184.368-.481.071-.651l-7.4-4.243a1.244,1.244,0,0,0-1.117-.014Zm-45.156,26.078-7.722,4.455c-.339.2-.368.481-.071.651l7.4,4.243a1.2,1.2,0,0,0,1.117,0l7.722-4.455c.325-.184.354-.481,0-.651l-7.4-4.243a1.3,1.3,0,0,0-.99.014Zm56.441-32.527-7.722,4.455c-.325.184-.354.481,0,.651l7.382,4.243a1.245,1.245,0,0,0,1.117,0l7.736-4.469c.325-.184.354-.481,0-.636l-7.382-4.243a1.23,1.23,0,0,0-1.075-.042ZM241.128,351.67l-7.722,4.469c-.339.184-.368.481,0,.651l7.382,4.243a1.273,1.273,0,0,0,1.131,0l7.722-4.469c.325-.184.354-.481.071-.651l-7.4-4.243a1.245,1.245,0,0,0-1.075-.042Zm-11.314,6.52-7.736,4.469c-.325.184-.354.481,0,.636l7.382,4.243a1.23,1.23,0,0,0,1.131,0l7.722-4.455c.325-.184.354-.481,0-.651l-7.382-4.243a1.245,1.245,0,0,0-.976-.042Zm-11.314,6.52-7.722,4.469c-.325.184-.354.467,0,.636l7.4,4.243a1.2,1.2,0,0,0,1.117,0l7.722-4.455c.339-.184.368-.481.071-.65l-7.382-4.243a1.273,1.273,0,0,0-1.047-.042Zm51.548,4.37,7.722-4.455c.325-.184.368-.481.071-.651l-7.4-4.243a1.244,1.244,0,0,0-1.117,0l-7.722,4.469c-.325.184-.354.481,0,.636l7.4,4.243a1.2,1.2,0,0,0,1.2-.042ZM375.38,274.142l-7.736,4.455c-.325.2-.354.481,0,.651l7.382,4.243a1.23,1.23,0,0,0,1.131,0l7.722-4.455c.325-.2.354-.481,0-.651l-7.382-4.243a1.245,1.245,0,0,0-.962-.042ZM361.7,282.033l-7.722,4.455c-.325.2-.354.481-.071.651l7.4,4.243a1.245,1.245,0,0,0,1.117,0l7.722-4.455c.339-.2.368-.481.071-.651l-7.382-4.243a1.272,1.272,0,0,0-.976-.042Zm25.116-14.467-7.722,4.455c-.325.2-.368.481-.071.65l7.4,4.243a1.2,1.2,0,0,0,1.117,0l7.722-4.455c.325-.2.354-.481,0-.651l-7.382-4.243a1.3,1.3,0,0,0-1.061,0Zm-62.409,57.983,7.736-4.455c.325-.184.354-.481,0-.651l-7.382-4.243a1.329,1.329,0,0,0-1.131,0l-7.722,4.469c-.325.184-.354.467,0,.636l7.4,4.243a1.2,1.2,0,0,0,1.1,0ZM399.2,261.018a1.329,1.329,0,0,0-1.131,0l-7.722,4.469c-.325.184-.354.467,0,.636l7.4,4.243a1.2,1.2,0,0,0,1.117,0l7.722-4.455c.339-.184.368-.481.071-.651ZM281.448,362.531l7.736-4.469c.325-.184.354-.481,0-.651l-7.382-4.243a1.273,1.273,0,0,0-1.131,0l-7.722,4.469c-.325.184-.354.481-.071.651l7.4,4.243a1.244,1.244,0,0,0,1.216,0ZM419.9,282.585l7.722-4.455c.339-.184.368-.481.071-.651l-7.283-4.257a1.329,1.329,0,0,0-1.131,0l-7.722,4.469c-.325.184-.354.467-.071.636l7.4,4.243a1.2,1.2,0,0,0,1.061.014Zm-21.85.424,7.736-4.455c.325-.184.354-.481,0-.651l-7.382-4.243a1.329,1.329,0,0,0-1.131,0l-7.722,4.455c-.325.2-.354.481-.071.65l7.4,4.243a1.2,1.2,0,0,0,1.216,0Zm11.7-15.9a1.3,1.3,0,0,0-1.117,0l-7.736,4.469c-.325.184-.354.467,0,.636l7.382,4.243a1.231,1.231,0,0,0,1.131,0l7.722-4.455c.325-.184.354-.481.071-.651Zm2.376-1.414,17.989,10.352a1.231,1.231,0,0,0,1.131,0l7.722-4.455c.325-.184.354-.481.071-.651l-17.961-10.352a1.245,1.245,0,0,0-1.117,0l-7.722,4.469c-.311.226-.311.523-.071.679Zm-26.078,14.453-7.722,4.455c-.325.2-.354.481,0,.651l7.4,4.243a1.2,1.2,0,0,0,1.117,0l7.722-4.455c.339-.2.368-.481.071-.651l-7.4-4.243a1.244,1.244,0,0,0-1.145.042Zm-84.966,49.059-7.722,4.455c-.339.2-.368.481-.071.651l7.382,4.243a1.273,1.273,0,0,0,1.131,0l7.722-4.455c.325-.2.354-.481.071-.65l-7.4-4.243a1.245,1.245,0,0,0-1.075.042ZM407.5,289.1a1.2,1.2,0,0,0,1.117,0l7.722-4.455c.325-.2.354-.481.071-.651l-7.4-4.243a1.244,1.244,0,0,0-1.117,0l-7.722,4.455c-.325.2-.368.481-.071.65ZM312.4,322.72l-7.722,4.455c-.325.2-.354.481-.071.651l7.4,4.243a1.2,1.2,0,0,0,1.117,0l7.722-4.455c.325-.2.368-.481,0-.651l-7.4-4.243a1.245,1.245,0,0,0-1.047,0Zm-88.488,72.422a1.273,1.273,0,0,0,1.131,0l7.722-4.455c.325-.2.354-.481.071-.651l-7.4-4.243a1.245,1.245,0,0,0-1.117,0l-7.722,4.455c-.339.2-.368.481,0,.651Zm-13.124-13.76-7.722,4.469c-.325.184-.354.481,0,.636l7.4,4.243a1.2,1.2,0,0,0,1.117,0l7.722-4.455c.339-.184.368-.481.071-.651L212,381.382a1.329,1.329,0,0,0-1.2.014Zm25.541,7.2,7.722-4.455c.339-.2.368-.481,0-.651l-7.4-4.243a1.245,1.245,0,0,0-1.117,0l-7.722,4.455c-.325.2.226.891.509,1.061l6.817,3.832a1.2,1.2,0,0,0,1.188.014Zm11.314-6.52,7.736-4.455c.325-.184.354-.481,0-.651L248,372.713a1.273,1.273,0,0,0-1.131,0l-7.722,4.455c-.325.2-.354.481,0,.651l7.382,4.243a1.2,1.2,0,0,0,1.089.057Zm11.314-6.52,7.722-4.455c.325-.184.354-.481,0-.651l-7.4-4.243a1.3,1.3,0,0,0-1.117,0l-7.722,4.469c-.339.184-.368.481-.071.636l7.382,4.243a1.23,1.23,0,0,0,1.16.014Zm-36.77-.679-7.835,4.427c-.325.184-.354.481,0,.636l7.382,4.243a1.23,1.23,0,0,0,1.131,0l7.722-4.455c.325-.184.354-.481,0-.651l-7.382-4.243a1.245,1.245,0,0,0-1.117.057Zm11.314-6.519-7.722,4.469c-.339.184-.368.481,0,.651l7.4,4.243a1.245,1.245,0,0,0,1.117,0l7.722-4.469c.325-.184.354-.481.071-.651l-7.4-4.243a1.245,1.245,0,0,0-1.315.014Zm45.156-26.064-7.849,4.483c-.325.2-.354.481-.071.651l7.4,4.243a1.245,1.245,0,0,0,1.117,0l7.722-4.455c.339-.2.368-.481,0-.651l-7.4-4.243a1.2,1.2,0,0,0-1.047-.014Zm-11.314,6.52-7.722,4.455c-.339.184-.368.481-.071.651l7.382,4.243a1.329,1.329,0,0,0,1.131,0l7.722-4.455c.325-.2.354-.481.071-.651l-7.4-4.243a1.2,1.2,0,0,0-1.216.014Zm22.628-13.039-7.722,4.455c-.325.2-.354.481,0,.651l7.382,4.243a1.244,1.244,0,0,0,1.117,0l7.736-4.455c.325-.2.354-.481,0-.651l-7.382-4.243a1.23,1.23,0,0,0-1.287.014ZM244.82,361.824l-7.722,4.469c-.325.184-.354.481-.071.651l7.4,4.243a1.245,1.245,0,0,0,1.117,0l7.722-4.469c.339-.184.368-.481.071-.65l-7.4-4.243a1.244,1.244,0,0,0-1.273.014Zm11.314-6.505-7.722,4.455c-.325.184-.354.481,0,.65l7.382,4.243a1.244,1.244,0,0,0,1.117,0l7.736-4.469c.325-.184.354-.481,0-.636l-7.382-4.243a1.231,1.231,0,0,0-1.315.014Zm-14.411,42.426,7.736-4.469c.325-.184.354-.481,0-.651l-7.382-4.243a1.273,1.273,0,0,0-1.131,0l-7.722,4.469c-.325.184-.354.481,0,.65l7.382,4.243a1.245,1.245,0,0,0,.933.042ZM182.2,394.916l-7.4-4.243a1.2,1.2,0,0,0-1.117,0L165.85,395.2c-.339.2-.368.481,0,.651l7.4,4.243a1.245,1.245,0,0,0,1.117,0l7.722-4.455a.406.406,0,0,0-.071-.665Zm14.708,3.691-7.382-4.243a1.245,1.245,0,0,0-1.117,0l-11.894,6.859c-.325.2-.354.481,0,.651l7.382,4.243a1.245,1.245,0,0,0,1.117,0l11.894-6.859a.5.5,0,0,0-.184-.594Zm-25.739-12.12-7.4-4.243a1.245,1.245,0,0,0-1.117,0l-9.687,5.53c-.325.184-.368.481,0,.651l7.4,4.243a1.245,1.245,0,0,0,1.117,0l9.5-5.487c.255-.184.283-.467,0-.636Zm7.283-4.243a1.273,1.273,0,0,0,1.131,0l7.481-4.37c.325-.184.354-.481.071-.636l-7.4-4.243a1.2,1.2,0,0,0-1.117,0l-7.736,4.455c-.325.184-.354.481,0,.651Zm31.806,20.8-7.382-4.243a1.231,1.231,0,0,0-1.131,0l-14.849,8.57c-.325.2-.368.481,0,.651l7.4,4.243a1.244,1.244,0,0,0,1.117,0l14.849-8.57C210.525,403.5,210.553,403.218,210.256,403.048Zm5.2,9.178-7.382-4.243a1.245,1.245,0,0,0-1.117,0l-9.518,5.487c-.325.2-.354.481,0,.651l7.382,4.243a1.245,1.245,0,0,0,1.117,0l9.518-5.487c.269-.2.3-.481,0-.65Zm46.754-78.348a1.3,1.3,0,0,0,1.117,0l7.722-4.469c.339-.184.368-.467.071-.636l-7.382-4.243a1.231,1.231,0,0,0-1.131,0l-7.665,4.427c-.325.184-.354.481-.071.65ZM239.587,346.9a1.273,1.273,0,0,0,1.131,0l7.722-4.469c.325-.184.354-.481,0-.651l-7.382-4.243a1.245,1.245,0,0,0-1.117,0L232.318,342c-.325.184-.354.481,0,.651ZM189.524,375.81a1.245,1.245,0,0,0,1.117,0l7.722-4.469c.325-.184.354-.467,0-.636l-7.4-4.243a1.2,1.2,0,0,0-1.117,0l-7.722,4.455c-.325.184-.368.481-.071.651Zm61.363-35.426a1.245,1.245,0,0,0,1.117,0l7.722-4.469c.325-.184.354-.481.071-.636l-7.4-4.243a1.2,1.2,0,0,0-1.117,0l-7.651,4.412c-.339.184-.368.481,0,.651Zm-22.627,13.039a1.245,1.245,0,0,0,1.117,0l7.722-4.469c.339-.184.368-.481.071-.651l-7.382-4.243a1.273,1.273,0,0,0-1.131,0L221,348.516c-.325.184-.354.481,0,.651ZM221,412.679a1.245,1.245,0,0,0-1.117,0l-11.879,6.859c-.325.2-.354.481-.071.651l7.4,4.243a1.245,1.245,0,0,0,1.117,0l11.879-6.859c.339-.2.368-.481,0-.651Zm-8.867-49.894a1.273,1.273,0,0,0,1.131,0l7.722-4.455c.325-.2.354-.481,0-.65l-7.382-4.243a1.2,1.2,0,0,0-1.117,0l-7.736,4.455c-.325.2-.354.481,0,.651Zm-11.314,6.52a1.3,1.3,0,0,0,1.117,0l7.722-4.455c.339-.2.368-.481.071-.651l-7.382-4.243a1.23,1.23,0,0,0-1.131,0l-7.722,4.455c-.325.2-.354.481,0,.651Zm229.344-77.386a1.3,1.3,0,0,0-1.117,0l-19.021,11c-.325.2-.354.481,0,.651l7.382,4.243a1.23,1.23,0,0,0,1.131,0l19.007-10.974c.325-.184.368-.481.071-.651ZM405.22,306.33a1.273,1.273,0,0,0-1.131,0l-7.722,4.5c-.325.2-.354.481-.071.651l7.4,4.243a1.2,1.2,0,0,0,1.117,0l7.722-4.455c.339-.2.368-.481.071-.651ZM252.838,391.268l7.722-4.469c.325-.184.354-.481.071-.651l-7.4-4.243a1.245,1.245,0,0,0-1.117,0L244.4,386.36c-.339.184-.368.481,0,.651l7.382,4.243a1.273,1.273,0,0,0,1.061.014Zm129.8-71.9a1.2,1.2,0,0,0-1.117,0l-7.778,4.5c-.325.2-.354.481,0,.65l7.382,4.243a1.273,1.273,0,0,0,1.131,0l7.722-4.455c.325-.2.354-.481,0-.651Zm58.831-33.941a1.329,1.329,0,0,0-1.131,0l-7.722,4.469c-.325.184-.354.481-.071.636l7.4,4.243a1.2,1.2,0,0,0,1.117,0l7.722-4.455c.339-.184.368-.481.071-.651Zm18.682-2.305L442.188,272.77a1.244,1.244,0,0,0-1.117,0l-7.722,4.469c-.325.184-.354.481,0,.636L451.3,288.242a1.23,1.23,0,0,0,1.131,0l7.722-4.455A.375.375,0,0,0,460.148,283.122Zm-119.7,60.571a1.273,1.273,0,0,0-1.131,0l-9.5,5.487c-.325.2-.354.481,0,.651l7.382,4.243a1.244,1.244,0,0,0,1.117,0l9.518-5.487c.325-.184.354-.481,0-.65Zm28.525-16.461a1.231,1.231,0,0,0-1.131,0l-11.879,6.859c-.325.184-.354.481-.071.65l7.4,4.243a1.244,1.244,0,0,0,1.117,0l11.894-6.859c.325-.2.354-.481,0-.651Zm-54.631,31.594a1.244,1.244,0,0,0-1.117,0l-63.64,36.77c-.325.2-.354.481-.071.651l7.4,4.243a1.245,1.245,0,0,0,1.117,0l63.64-36.77c.325-.184.354-.481.071-.651ZM247.2,397.589a1.2,1.2,0,0,0-1.117,0l-9.518,5.53c-.339.184-.368.481,0,.651l7.382,4.243a1.273,1.273,0,0,0,1.131,0l9.5-5.5c.325-.184.354-.467.071-.636Zm80.214-46.316a1.2,1.2,0,0,0-1.117,0l-9.5,5.487c-.325.184-.368.481-.071.65l7.4,4.243a1.244,1.244,0,0,0,1.117,0l9.5-5.487c.339-.2.368-.481.071-.65Zm-93.338,53.868a1.273,1.273,0,0,0-1.131,0l-9.5,5.487c-.325.2-.354.481,0,.651l7.382,4.243a1.2,1.2,0,0,0,1.117,0l9.518-5.487c.325-.184.354-.481,0-.651ZM353.5,336.184a1.244,1.244,0,0,0-1.117,0l-9.5,5.5c-.339.184-.368.467-.071.636l7.382,4.243a1.231,1.231,0,0,0,1.131,0l9.5-5.487c.325-.184.354-.481.071-.65Zm40.418-23.363a1.2,1.2,0,0,0-1.117,0l-7.75,4.526c-.325.2-.368.481,0,.651l7.4,4.243a1.244,1.244,0,0,0,1.117,0l7.722-4.455c.325-.2.354-.481.071-.651Zm25.286-17.649,7.736-4.455c.325-.2.354-.481,0-.65l-7.382-4.243a1.329,1.329,0,0,0-1.131,0l-7.722,4.455c-.325.2-.354.481,0,.651l7.382,4.243a1.2,1.2,0,0,0,1.117.028Zm-46.061,2.22,7.665-4.37c.325-.2.354-.481,0-.651l-7.4-4.243a1.244,1.244,0,0,0-1.117,0l-7.722,4.455c-.339.2-.368.481-.071.651l7.382,4.243a1.23,1.23,0,0,0,1.259-.057Zm-30,41.691,22.627-13.025c.325-.2.354-.481.071-.651l-7.4-4.243a1.2,1.2,0,0,0-1.117,0L334.707,334.2c-.325.184-.354.467,0,.636l7.4,4.243a1.2,1.2,0,0,0,1.047.028Zm63.64-37.349a1.2,1.2,0,0,0,1.117,0l7.722-4.455c.339-.2.368-.481.071-.651l-7.4-4.243a1.244,1.244,0,0,0-1.117,0l-7.722,4.455c-.325.2-.354.481-.071.65Zm-9.433-6.138,7.722-4.455c.325-.2.354-.481.071-.651l-7.4-4.243a1.244,1.244,0,0,0-1.117,0L388.9,290.7c-.325.2-.354.481,0,.65l7.382,4.243a1.23,1.23,0,0,0,1.089.028Zm-65.492,50.035,7.722-4.455c.325-.2.368-.481,0-.651l-7.4-4.243a1.244,1.244,0,0,0-1.117,0l-7.722,4.455c-.325.2-.354.481-.071.651l7.4,4.243a1.2,1.2,0,0,0,1.188,0Zm49.978-29.458a1.244,1.244,0,0,0,1.117,0l7.736-4.455c.325-.2.354-.481,0-.65l-7.382-4.243a1.23,1.23,0,0,0-1.131,0l-7.722,4.455c-.325.2-.354.481,0,.651ZM275.409,378.229l7.736-4.469c.325-.184.354-.467,0-.636l-7.382-4.243a1.23,1.23,0,0,0-1.131,0l-7.722,4.455c-.325.184-.354.481-.071.651l7.4,4.243A1.244,1.244,0,0,0,275.409,378.229Zm11.314-6.52,7.722-4.455c.325-.2.354-.481.071-.651l-7.4-4.243a1.2,1.2,0,0,0-1.117,0l-7.722,4.455c-.339.184-.368.481-.071.651l7.382,4.243a1.33,1.33,0,0,0,1.117,0ZM264.1,384.748l7.821-4.469c.339-.184.368-.481.071-.636l-7.4-4.243a1.2,1.2,0,0,0-1.117,0l-7.722,4.455c-.325.184-.354.481-.071.651l7.4,4.243a1.245,1.245,0,0,0,1.047,0Zm45.156-26.078,7.736-4.455c.325-.2.354-.481,0-.651l-7.382-4.243a1.273,1.273,0,0,0-1.131,0l-7.637,4.511c-.325.2-.354.481-.071.65l7.4,4.243a1.245,1.245,0,0,0,1.117-.057Zm-11.314,6.52,7.722-4.455c.325-.2.368-.481.071-.651l-7.4-4.243a1.2,1.2,0,0,0-1.117,0l-7.722,4.455c-.325.2-.354.481-.071.651l7.4,4.243a1.245,1.245,0,0,0,1.174-.042Zm22.628-13.039,7.722-4.455c.325-.2.354-.481.071-.65l-7.4-4.243a1.245,1.245,0,0,0-1.117,0l-7.736,4.455c-.325.2-.354.481,0,.651l7.382,4.243a1.23,1.23,0,0,0,1.089,0Zm61.66-90.68a1.245,1.245,0,0,0,1.117,0L391.078,257c.325-.184.354-.481,0-.651l-1.966-1.131a1.2,1.2,0,0,0-1.117,0l-7.722,4.455c-.325.2-.368.481-.071.65ZM326.109,297.01a1.329,1.329,0,0,0,1.131,0l7.722-4.469c.325-.184.354-.467,0-.636l-7.382-4.243a1.2,1.2,0,0,0-1.117,0l-7.736,4.455c-.325.184-.354.481,0,.651Zm22.627-13.039a1.244,1.244,0,0,0,1.117,0l7.722-4.455c.339-.2.368-.481.071-.651l-7.382-4.243a1.23,1.23,0,0,0-1.131,0l-7.722,4.455c-.325.2-.354.481-.071.651Zm-36.374,20.987a1.273,1.273,0,0,0,1.131,0l7.722-4.469c.325-.184.354-.481.071-.651l-7.4-4.243a1.2,1.2,0,0,0-1.117,0l-7.806,4.5c-.339.184-.368.481-.071.651Zm25.088-14.467a1.245,1.245,0,0,0,1.117,0l7.722-4.455c.325-.2.354-.481.071-.651l-7.4-4.243a1.2,1.2,0,0,0-1.117,0l-7.722,4.455c-.339.2-.368.481-.071.651ZM289.792,318a1.2,1.2,0,0,0,1.117,0l7.722-4.455c.339-.184.368-.481,0-.651l-7.4-4.243a1.244,1.244,0,0,0-1.117,0l-7.722,4.469c-.325.184-.354.481-.071.636Zm11.314-6.52a1.244,1.244,0,0,0,1.117,0l7.736-4.469c.325-.184.354-.481,0-.651l-7.382-4.243a1.272,1.272,0,0,0-1.131,0l-7.722,4.469c-.325.184-.354.481,0,.651ZM359.6,274.51a1.23,1.23,0,0,0,1.131,0l7.722-4.455c.325-.184.354-.481.071-.651l-1.966-1.131a1.23,1.23,0,0,0-1.131,0l-7.722,4.455c-.325.184-.354.481-.071.651Zm33.941-19.559a1.273,1.273,0,0,0,1.131,0l7.722-4.469c.325-.184.354-.481.071-.651L400.5,248.7a1.23,1.23,0,0,0-1.131,0l-7.722,4.455c-.325.2-.354.481-.071.651Zm15.556,8.966a1.23,1.23,0,0,0,1.131,0l7.722-4.455c.325-.184.354-.481,0-.651l-7.382-4.243a1.244,1.244,0,0,0-1.117,0l-7.778,4.511c-.325.184-.354.481,0,.636Zm21.51,24.763,7.722-4.455c.325-.184.354-.481,0-.651l-7.4-4.243a1.244,1.244,0,0,0-1.117,0l-7.722,4.469c-.339.184-.368.467-.071.636l7.382,4.243a1.23,1.23,0,0,0,1.1,0Zm-59.694-20.69a1.2,1.2,0,0,0,1.117,0l7.722-4.455c.339-.184.368-.481.071-.651l-1.966-1.131a1.2,1.2,0,0,0-1.117,0l-7.75,4.4c-.325.184-.354.481,0,.651Zm-92.49,56.569a1.23,1.23,0,0,0,1.131,0l7.722-4.455c.325-.184.354-.481.071-.65l-7.4-4.243a1.3,1.3,0,0,0-1.117,0l-7.722,4.469c-.339.184-.368.467,0,.636Z" transform="translate(-92.704 9.676)"/>
        <path id="Path_7295" data-name="Path 7295" d="M265.22,356.351l1.584.919,42.073,24.282,74.812-43.19,1.556-.891-43.657-25.2Z" transform="translate(-46.099 37.193)" opacity="0.4"/>
        <path id="Path_7296" data-name="Path 7296" d="M266.34,356.744l42.073,24.282,74.812-43.19-42.1-24.3Z" transform="translate(-45.635 37.719)" fill="#8d8d8d"/>
        <path id="Path_7297" data-name="Path 7297" d="M266.34,356.744l42.073,24.282,74.812-43.19-42.1-24.3Z" transform="translate(-45.65 37.719)" opacity="0.45"/>
        <path id="Path_7298" data-name="Path 7298" d="M112.875,338a10.654,10.654,0,0,0,2.121.905,9.9,9.9,0,0,1-2.121-.891,4.889,4.889,0,0,1-.665-.438,6.588,6.588,0,0,0,.665.424Z" transform="translate(-109.479 47.676)" fill="#fc644f"/>
        <path id="Path_7299" data-name="Path 7299" d="M121.26,338.369a.411.411,0,0,1,.113-.1l-.085.085Z" transform="translate(-105.73 47.962)" fill="#fc644f"/>
      </g>
      <g id="freepik--Window--inject-16--inject-84" transform="translate(31.959 46.482)">
        <path id="Path_7300" data-name="Path 7300" d="M368.348,110.24l-4.525-2.63L132.9,240.942v135.92a3.408,3.408,0,0,0,1.414,3.125h0l4.525,2.63h0a3.352,3.352,0,0,0,3.408-.339L363.568,254.561a10.706,10.706,0,0,0,4.822-8.372Z" transform="translate(-132.877 -94.063)" fill="#e6e6e6"/>
        <path id="Path_7301" data-name="Path 7301" d="M136.09,378.751c0,3.083,2.15,4.328,4.822,2.828L362.237,253.791a10.706,10.706,0,0,0,4.822-8.372V109.47L136.09,242.8Z" transform="translate(-131.547 -93.292)" fill="#fafafa"/>
        <path id="Path_7302" data-name="Path 7302" d="M365.9,111.407V245.419a9.574,9.574,0,0,1-4.243,7.4l-221.3,127.76a3.267,3.267,0,0,1-1.6.509c-1.414,0-1.57-1.626-1.57-2.333V243.439L365.9,111.407m1.117-1.937L136.09,242.8V378.751c0,2.192,1.089,3.451,2.673,3.451a4.356,4.356,0,0,0,2.15-.665L362.237,253.791a10.706,10.706,0,0,0,4.822-8.372V109.47Z" transform="translate(-131.547 -93.292)" fill="#e0e0e0"/>
        <path id="Path_7303" data-name="Path 7303" d="M136.09,242.8v20.9L367.017,130.372v-20.9Z" transform="translate(-131.547 -93.292)" fill="#fc644f"/>
        <path id="Path_7304" data-name="Path 7304" d="M238.55,163.14v4.5c0,.919.651,1.3,1.414.834l70.994-41.012V119.61l-70.994,41.012a3.2,3.2,0,0,0-1.414,2.517Z" transform="translate(-89.106 -89.092)" fill="#fafafa"/>
        <path id="Path_7305" data-name="Path 7305" d="M297.393,116.577c.792-.453,1.414-.085,1.414.849v4.5a3.224,3.224,0,0,1-1.414,2.5l-7.623,4.4v-7.849Z" transform="translate(-67.89 -90.429)" fill="#455a64"/>
        <path id="Path_7306" data-name="Path 7306" d="M296.06,121.871l-.849-.269a4.867,4.867,0,0,0,.127-1.089,2.051,2.051,0,0,0-.764-1.824,1.23,1.23,0,0,0-1.244,0,4.342,4.342,0,0,0-1.7,3.521,1.98,1.98,0,0,0,.778,1.81,1.075,1.075,0,0,0,.537.156,1.315,1.315,0,0,0,.693-.212,3.436,3.436,0,0,0,1.414-1.838l.849.269h.1a.263.263,0,1,0,.057-.523Zm-2.729,1.57a.608.608,0,0,1-.608,0,1.485,1.485,0,0,1-.453-1.273,3.776,3.776,0,0,1,1.414-2.984.891.891,0,0,1,.382-.113.41.41,0,0,1,.226,0,1.485,1.485,0,0,1,.467,1.273A3.8,3.8,0,0,1,293.331,123.441Z" transform="translate(-67.123 -89.543)" fill="#fafafa"/>
        <path id="Path_7307" data-name="Path 7307" d="M362.446,98.369A3.352,3.352,0,0,0,359,98.68L137.712,226.441a10.621,10.621,0,0,0-4.823,8.358V244.91l4.526,2.63L368.343,114.208V104.1a3.408,3.408,0,0,0-1.414-3.111C366.137,100.519,363.238,98.85,362.446,98.369Z" transform="translate(-132.872 -98.031)" fill="#263238"/>
        <path id="Path_7308" data-name="Path 7308" d="M136.09,236.661a10.635,10.635,0,0,1,4.822-8.358l221.325-127.76c2.659-1.542,4.822-.283,4.822,2.828v10.112L136.09,246.773Z" transform="translate(-131.547 -97.263)" fill="#37474f"/>
        <path id="Path_7309" data-name="Path 7309" d="M366.589,101.014a3.366,3.366,0,0,0-3.479.3L141.828,229.071a9.9,9.9,0,0,0-3.408,3.592l-4.54-2.616a9.9,9.9,0,0,1,3.422-3.606L358.585,98.68a3.352,3.352,0,0,1,3.451-.311c.792.481,3.691,2.15,4.5,2.616Z" transform="translate(-132.462 -98.031)" fill="#455a64"/>
        <path id="Path_7310" data-name="Path 7310" d="M280.833,113.251a5.006,5.006,0,0,0-2.263,3.917c0,1.414,1.018,2.036,2.263,1.315a5.021,5.021,0,0,0,2.263-3.932C283.1,113.109,282.077,112.53,280.833,113.251Z" transform="translate(-72.529 -91.855)" fill="#fc644f"/>
        <path id="Path_7311" data-name="Path 7311" d="M286.433,110.02a5.035,5.035,0,0,0-2.263,3.932c0,1.414,1.018,2.022,2.263,1.3a4.978,4.978,0,0,0,2.263-3.917C288.7,109.893,287.691,109.3,286.433,110.02Z" transform="translate(-70.209 -93.192)" fill="#fc644f"/>
        <path id="Path_7312" data-name="Path 7312" d="M292.047,106.8a4.992,4.992,0,0,0-2.277,3.917c0,1.414,1.018,2.022,2.277,1.3a5.006,5.006,0,0,0,2.263-3.917C294.338,106.659,293.291,106.08,292.047,106.8Z" transform="translate(-67.89 -94.526)" fill="#fc644f"/>
        <path id="Path_7313" data-name="Path 7313" d="M140.9,344.038l40.461-23.349V200L136.11,226.149V341.2C136.082,344.335,138.231,345.579,140.9,344.038Z" transform="translate(-131.538 -55.793)" fill="#f5f5f5"/>
        <path id="Path_7314" data-name="Path 7314" d="M180.248,201.994V320.039l-39.9,23.038a3.267,3.267,0,0,1-1.6.509c-1.414,0-1.57-1.626-1.57-2.333V226.87l43.063-24.848m1.117-1.937L136.11,226.234V341.28c0,2.192,1.089,3.451,2.673,3.451a4.355,4.355,0,0,0,2.15-.665l40.461-23.349V200Z" transform="translate(-131.538 -55.793)" fill="#e0e0e0"/>
        <path id="Path_7315" data-name="Path 7315" d="M147.147,223.517l21.609-12.53c.792-.453,1.414-.085,1.414.834v1.9a3.2,3.2,0,0,1-1.414,2.5L147.1,228.735c-.806.467-1.414.1-1.414-.834V226.02a3.182,3.182,0,0,1,1.457-2.5Z" transform="translate(-127.57 -51.323)" fill="#e0e0e0"/>
        <path id="Path_7316" data-name="Path 7316" d="M143.8,223.713v1.881a3.2,3.2,0,0,1-1.414,2.5l-1.641.948c-.792.467-1.414.085-1.414-.834v-1.881a3.224,3.224,0,0,1,1.414-2.517l1.641-.933C143.106,222.412,143.8,222.794,143.8,223.713Z" transform="translate(-130.205 -46.399)" fill="#fc644f"/>
        <path id="Path_7317" data-name="Path 7317" d="M147.147,230.874l21.609-12.516c.792-.467,1.414-.085,1.414.834v1.881a3.2,3.2,0,0,1-1.414,2.517L147.1,236.107c-.806.467-1.414.085-1.414-.834v-1.881a3.2,3.2,0,0,1,1.457-2.517Z" transform="translate(-127.57 -48.271)" fill="#e0e0e0"/>
        <path id="Path_7318" data-name="Path 7318" d="M143.8,231.085v1.881a3.2,3.2,0,0,1-1.414,2.5l-1.641.947c-.792.453-1.414.085-1.414-.834v-1.9a3.224,3.224,0,0,1,1.414-2.5l1.641-.948C143.106,229.784,143.8,230.152,143.8,231.085Z" transform="translate(-130.205 -43.349)" fill="#fc644f"/>
        <path id="Path_7319" data-name="Path 7319" d="M147.147,238.245l21.609-12.516c.792-.467,1.414-.1,1.414.834v1.881a3.182,3.182,0,0,1-1.414,2.5L147.1,243.478c-.806.453-1.414.085-1.414-.834v-1.9a3.2,3.2,0,0,1,1.457-2.5Z" transform="translate(-127.57 -45.22)" fill="#e0e0e0"/>
        <path id="Path_7320" data-name="Path 7320" d="M143.8,238.441v1.9a3.224,3.224,0,0,1-1.414,2.5l-1.641.933c-.792.467-1.414.1-1.414-.834v-1.867a3.2,3.2,0,0,1,1.414-2.5l1.641-.948C143.106,237.14,143.8,237.522,143.8,238.441Z" transform="translate(-130.205 -40.296)" fill="#fc644f"/>
        <path id="Path_7321" data-name="Path 7321" d="M147.147,262.747l21.609-12.6c.792-.453,1.414-.085,1.414.849v1.853a3.182,3.182,0,0,1-1.414,2.5L147.1,267.881c-.806.453-1.414.085-1.414-.834v-1.9A3.2,3.2,0,0,1,147.147,262.747Z" transform="translate(-127.57 -35.102)" fill="#e0e0e0"/>
        <path id="Path_7322" data-name="Path 7322" d="M143.8,262.873v1.881a3.224,3.224,0,0,1-1.414,2.517l-1.641.933c-.792.467-1.414.1-1.414-.834v-1.881a3.2,3.2,0,0,1,1.414-2.5l1.641-.948C143.106,261.572,143.8,261.954,143.8,262.873Z" transform="translate(-130.205 -30.179)" fill="#fc644f"/>
        <path id="Path_7323" data-name="Path 7323" d="M147.147,269.194l21.609-12.516c.792-.467,1.414-.085,1.414.834v1.881a3.2,3.2,0,0,1-1.414,2.517L147.1,274.427c-.806.467-1.414.085-1.414-.834v-1.881a3.2,3.2,0,0,1,1.457-2.517Z" transform="translate(-127.57 -32.399)" fill="#e0e0e0"/>
        <path id="Path_7324" data-name="Path 7324" d="M143.8,269.4v1.881a3.2,3.2,0,0,1-1.414,2.5l-1.641.947c-.792.453-1.414.085-1.414-.834v-1.9a3.224,3.224,0,0,1,1.414-2.5l1.641-.933C143.106,268.1,143.8,268.47,143.8,269.4Z" transform="translate(-130.205 -27.474)" fill="#fc644f"/>
        <path id="Path_7325" data-name="Path 7325" d="M147.147,275.726l21.609-12.53c.792-.453,1.414-.085,1.414.849v1.881a3.2,3.2,0,0,1-1.414,2.5L147.1,280.959c-.806.453-1.414.085-1.414-.849V278.23A3.2,3.2,0,0,1,147.147,275.726Z" transform="translate(-127.57 -29.696)" fill="#e0e0e0"/>
        <path id="Path_7326" data-name="Path 7326" d="M143.8,275.913v1.952a3.224,3.224,0,0,1-1.414,2.517l-1.641.933c-.792.467-1.414.085-1.414-.834V278.6a3.2,3.2,0,0,1,1.414-2.5l1.641-.948C143.106,274.612,143.8,275.036,143.8,275.913Z" transform="translate(-130.205 -24.764)" fill="#fc644f"/>
        <path id="Path_7327" data-name="Path 7327" d="M145.69,242.56v3.253l2.814-3.253Z" transform="translate(-127.57 -38.164)" fill="#fc644f"/>
        <path id="Path_7328" data-name="Path 7328" d="M148.9,245.675c0,.594.424.834.962.537l18.1-10.423a2.164,2.164,0,0,0,.962-1.669c0-.608-.438-.863-.962-.552l-18.1,10.451A2.107,2.107,0,0,0,148.9,245.675Z" transform="translate(-126.24 -41.944)" fill="#e0e0e0"/>
        <path id="Path_7329" data-name="Path 7329" d="M145.69,246.26v3.253l2.814-3.253Z" transform="translate(-127.57 -36.632)" fill="#fc644f"/>
        <path id="Path_7330" data-name="Path 7330" d="M148.9,249.361c0,.608.424.849.962.537l18.1-10.423a2.121,2.121,0,0,0,.962-1.655c0-.622-.438-.863-.962-.552l-18.1,10.451a2.079,2.079,0,0,0-.962,1.64Z" transform="translate(-126.24 -40.412)" fill="#e0e0e0"/>
        <path id="Path_7331" data-name="Path 7331" d="M145.69,249.95V253.2l2.814-3.253Z" transform="translate(-127.57 -35.103)" fill="#fc644f"/>
        <path id="Path_7332" data-name="Path 7332" d="M148.9,253.063c0,.608.424.849.962.537l18.1-10.423a2.15,2.15,0,0,0,.962-1.669c0-.608-.438-.849-.962-.552l-18.1,10.451A2.107,2.107,0,0,0,148.9,253.063Z" transform="translate(-126.24 -38.881)" fill="#e0e0e0"/>
        <path id="Path_7333" data-name="Path 7333" d="M145.69,253.65V256.9l2.814-3.253Z" transform="translate(-127.57 -33.571)" fill="#fc644f"/>
        <path id="Path_7334" data-name="Path 7334" d="M148.9,256.765c0,.594.424.834.962.523l18.1-10.409a2.164,2.164,0,0,0,.962-1.669c0-.608-.438-.863-.962-.552l-18.1,10.437A2.107,2.107,0,0,0,148.9,256.765Z" transform="translate(-126.24 -37.35)" fill="#e0e0e0"/>
        <path id="Path_7335" data-name="Path 7335" d="M177.71,209.078v27.238c0,1.146.806,1.6,1.8,1.032l29.953-17.3a3.931,3.931,0,0,0,1.782-3.1v-22.4c0-1.146-.792-1.6-1.782-1.032l-17.381,10.041c-.99.566-1.8.1-1.8-1.032v-.721c0-1.131-.792-1.6-1.782-1.032l-8.966,5.2A3.946,3.946,0,0,0,177.71,209.078Z" transform="translate(-114.307 -58.578)" fill="#fc644f"/>
        <path id="Path_7336" data-name="Path 7336" d="M181.88,231.865V233.6c0,.849.594,1.2,1.329.778l22.472-12.912a2.927,2.927,0,0,0,1.343-2.319v-1.739c0-.863-.594-1.2-1.343-.778L183.209,229.6a2.984,2.984,0,0,0-1.329,2.263Z" transform="translate(-112.58 -48.979)" fill="#e0e0e0"/>
        <path id="Path_7337" data-name="Path 7337" d="M207.16,192.168v27.238c0,1.146.806,1.6,1.8,1.032l29.953-17.3a3.931,3.931,0,0,0,1.782-3.1v-22.4c0-1.146-.792-1.6-1.782-1.032l-17.381,10.027c-.99.58-1.8.113-1.8-1.018V184.9c0-1.131-.792-1.6-1.782-1.032l-8.994,5.2a3.946,3.946,0,0,0-1.8,3.1Z" transform="translate(-102.108 -65.582)" fill="#fc644f"/>
        <path id="Path_7338" data-name="Path 7338" d="M211.33,214.978v1.754c0,.849.594,1.2,1.329.764l22.472-13.025a2.942,2.942,0,0,0,1.414-2.319v-1.739c0-.863-.594-1.2-1.414-.778L212.659,212.6A2.97,2.97,0,0,0,211.33,214.978Z" transform="translate(-100.381 -56.021)" fill="#e0e0e0"/>
        <path id="Path_7339" data-name="Path 7339" d="M177.71,247.778v27.238c0,1.146.806,1.6,1.8,1.032l29.953-17.3a3.931,3.931,0,0,0,1.782-3.1v-22.4c0-1.146-.792-1.6-1.782-1.032l-17.381,10.041c-.99.566-1.8.1-1.8-1.032v-.735c0-1.131-.792-1.6-1.782-1.032l-8.966,5.275a3.946,3.946,0,0,0-1.824,3.041Z" transform="translate(-114.307 -42.547)" fill="#fc644f"/>
        <path id="Path_7340" data-name="Path 7340" d="M181.88,270.585v1.74c0,.849.594,1.2,1.329.778l22.472-12.983a2.927,2.927,0,0,0,1.343-2.319v-1.739c0-.863-.594-1.2-1.343-.778l-22.472,12.968A2.984,2.984,0,0,0,181.88,270.585Z" transform="translate(-112.58 -32.969)" fill="#e0e0e0"/>
        <path id="Path_7341" data-name="Path 7341" d="M207.16,230.855v27.238c0,1.146.806,1.6,1.8,1.032l29.953-17.3a3.932,3.932,0,0,0,1.782-3.1V216.374c0-1.145-.792-1.6-1.782-1.032l-17.381,10.041c-.99.566-1.8.1-1.8-1.032v-.721c0-1.131-.792-1.6-1.782-1.032l-8.994,5.2a3.946,3.946,0,0,0-1.8,3.055Z" transform="translate(-102.108 -49.539)" fill="#fc644f"/>
        <path id="Path_7342" data-name="Path 7342" d="M211.33,253.661v1.754c0,.849.594,1.2,1.329.778l22.472-12.982a2.942,2.942,0,0,0,1.414-2.319v-1.739c0-.863-.594-1.2-1.414-.778l-22.472,12.968a2.984,2.984,0,0,0-1.329,2.319Z" transform="translate(-100.381 -39.974)" fill="#e0e0e0"/>
        <path id="Path_7343" data-name="Path 7343" d="M237,174.315v27.309c0,1.131.792,1.6,1.782,1.032l29.953-17.3a3.946,3.946,0,0,0,1.8-3.1V159.805c0-1.146-.806-1.612-1.8-1.032L251.354,168.8c-.99.58-1.782.113-1.782-1.032v-.707c0-1.146-.806-1.6-1.782-1.032l-9.009,5.2A3.917,3.917,0,0,0,237,174.315Z" transform="translate(-89.748 -72.973)" fill="#fc644f"/>
        <path id="Path_7344" data-name="Path 7344" d="M240.78,198.053v1.754c0,.849.594,1.2,1.329.764L264.581,187.6a2.941,2.941,0,0,0,1.344-2.319v-1.754c0-.849-.594-1.2-1.344-.764l-22.472,12.968a2.97,2.97,0,0,0-1.329,2.319Z" transform="translate(-88.182 -63.01)" fill="#e0e0e0"/>
        <path id="Path_7345" data-name="Path 7345" d="M266.06,158.335v27.28c0,1.131.806,1.6,1.8,1.032l29.953-17.3a3.974,3.974,0,0,0,1.782-3.1V143.811c0-1.131-.792-1.6-1.782-1.018L280.428,152.82c-.99.58-1.8.113-1.8-1.032v-.707c0-1.146-.792-1.6-1.782-1.032l-8.994,5.19A3.988,3.988,0,0,0,266.06,158.335Z" transform="translate(-77.711 -79.593)" fill="#fc644f"/>
        <path id="Path_7346" data-name="Path 7346" d="M270.23,181.143v1.739c0,.863.594,1.2,1.329.778l22.472-12.968a2.942,2.942,0,0,0,1.344-2.319v-1.754c0-.849-.594-1.2-1.344-.764l-22.472,13.011a2.97,2.97,0,0,0-1.329,2.277Z" transform="translate(-75.984 -70.015)" fill="#e0e0e0"/>
        <path id="Path_7347" data-name="Path 7347" d="M240.78,236.744v1.739c0,.863.594,1.2,1.329.778l22.472-12.968a2.97,2.97,0,0,0,1.344-2.333v-1.74c0-.849-.594-1.2-1.344-.778l-22.472,12.983a2.941,2.941,0,0,0-1.329,2.319Z" transform="translate(-88.182 -46.986)" fill="#e0e0e0"/>
        <path id="Path_7348" data-name="Path 7348" d="M241.733,209.147l23.32-13.449c1.061-.622,1.923-.113,1.923,1.117v26.87a4.243,4.243,0,0,1-1.923,3.352l-23.32,13.449c-1.061.622-1.923.127-1.923-1.1v-26.87a4.243,4.243,0,0,1,1.923-3.366Z" transform="translate(-88.584 -57.685)" fill="#fafafa"/>
        <path id="Path_7349" data-name="Path 7349" d="M241.034,241.508a1.414,1.414,0,0,1-.778-.2,1.881,1.881,0,0,1-.834-1.725v-26.87a4.823,4.823,0,0,1,2.206-3.833l23.306-13.449a1.725,1.725,0,0,1,2.828,1.6V223.9a4.822,4.822,0,0,1-2.22,3.833L242.236,241.2a2.39,2.39,0,0,1-1.2.311Zm1.146-31.693a3.705,3.705,0,0,0-1.655,2.828v26.87a.651.651,0,0,0,1.1.622l23.306-13.449a3.734,3.734,0,0,0,1.655-2.828v-26.87a.848.848,0,0,0-.3-.764c-.184-.113-.467,0-.806.127Z" transform="translate(-88.748 -57.859)" fill="#ebebeb"/>
        <path id="Path_7350" data-name="Path 7350" d="M261.674,198.268l-5.19,3a4.243,4.243,0,0,0-1.923,3.338v6.01c0,1.23.863,1.725,1.923,1.1l5.19-3a4.242,4.242,0,0,0,1.938-3.338v-5.968C263.668,198.155,262.748,197.645,261.674,198.268Z" transform="translate(-82.474 -56.621)" fill="#fc644f"/>
        <path id="Path_7351" data-name="Path 7351" d="M242.712,209.194l11.681-6.718a.6.6,0,0,1,.962.552v.382a2.163,2.163,0,0,1-.962,1.669l-11.681,6.675a.6.6,0,0,1-.962-.566v-.382a2.135,2.135,0,0,1,.962-1.612Z" transform="translate(-87.78 -54.819)" fill="#ebebeb"/>
        <path id="Path_7352" data-name="Path 7352" d="M242.712,212.884l11.681-6.717a.6.6,0,0,1,.962.566v.368a2.163,2.163,0,0,1-.962,1.669L242.712,215.5a.594.594,0,0,1-.962-.552v-.4A2.135,2.135,0,0,1,242.712,212.884Z" transform="translate(-87.78 -53.29)" fill="#ebebeb"/>
        <path id="Path_7353" data-name="Path 7353" d="M242.712,216.572l11.681-6.718a.6.6,0,0,1,.962.566v.368a2.121,2.121,0,0,1-.962,1.669l-11.681,6.732a.594.594,0,0,1-.962-.552v-.382a2.135,2.135,0,0,1,.962-1.683Z" transform="translate(-87.78 -51.76)" fill="#ebebeb"/>
        <path id="Path_7354" data-name="Path 7354" d="M242.712,221.583l19.4-11.186a.6.6,0,0,1,.962.552v.354a2.163,2.163,0,0,1-.962,1.669l-19.4,11.186a.594.594,0,0,1-.962-.552v-.382A2.093,2.093,0,0,1,242.712,221.583Z" transform="translate(-87.78 -51.538)" fill="#ebebeb"/>
        <path id="Path_7355" data-name="Path 7355" d="M242.712,225.313l19.4-11.186a.6.6,0,0,1,.962.566v.368a2.15,2.15,0,0,1-.962,1.669l-19.4,11.2a.6.6,0,0,1-.962-.566v-.382a2.107,2.107,0,0,1,.962-1.669Z" transform="translate(-87.78 -49.993)" fill="#ebebeb"/>
        <path id="Path_7356" data-name="Path 7356" d="M269.59,220.1v1.754c0,.849.608,1.2,1.414.764l22.472-12.968a2.984,2.984,0,0,0,1.344-2.319v-1.754c0-.849-.608-1.2-1.344-.764L271,217.784A2.984,2.984,0,0,0,269.59,220.1Z" transform="translate(-76.249 -53.877)" fill="#e0e0e0"/>
        <path id="Path_7357" data-name="Path 7357" d="M270.563,192.511l23.292-13.435c1.075-.608,1.937-.113,1.937,1.117v26.87a4.242,4.242,0,0,1-1.937,3.338l-23.292,13.477c-1.061.608-1.923.113-1.923-1.117v-26.87a4.243,4.243,0,0,1,1.923-3.38Z" transform="translate(-76.642 -64.568)" fill="#fafafa"/>
        <path id="Path_7358" data-name="Path 7358" d="M269.858,224.882a1.584,1.584,0,0,1-.778-.2,1.923,1.923,0,0,1-.848-1.74v-26.87a4.808,4.808,0,0,1,2.206-3.818l23.306-13.463a1.725,1.725,0,0,1,2.828,1.6v26.87a4.808,4.808,0,0,1-2.206,3.818L271,224.515a2.305,2.305,0,0,1-1.146.368ZM271,193.176A3.677,3.677,0,0,0,269.349,196v26.87c0,.382.1.665.283.764a.848.848,0,0,0,.806-.127l23.306-13.463a3.677,3.677,0,0,0,1.655-2.828v-26.87c0-.382-.1-.665-.283-.764a.848.848,0,0,0-.806.127Z" transform="translate(-76.814 -64.751)" fill="#ebebeb"/>
        <path id="Path_7359" data-name="Path 7359" d="M290.5,181.626l-5.19,3a4.243,4.243,0,0,0-1.937,3.352v6c0,1.23.863,1.725,1.938,1.117l5.19-3a4.313,4.313,0,0,0,1.938-3.352v-6C292.435,181.513,291.558,181.018,290.5,181.626Z" transform="translate(-70.541 -63.512)" fill="#fc644f"/>
        <path id="Path_7360" data-name="Path 7360" d="M271.536,192.552l11.667-6.717a.608.608,0,0,1,.976.566v.368a2.107,2.107,0,0,1-.976,1.669l-11.667,6.732a.6.6,0,0,1-.976-.552v-.4A2.15,2.15,0,0,1,271.536,192.552Z" transform="translate(-75.847 -61.709)" fill="#ebebeb"/>
        <path id="Path_7361" data-name="Path 7361" d="M271.536,196.257,283.2,189.54c.537-.311.976-.071.976.552v.368a2.15,2.15,0,0,1-.976,1.683l-11.667,6.718a.6.6,0,0,1-.976-.552v-.382A2.107,2.107,0,0,1,271.536,196.257Z" transform="translate(-75.847 -60.182)" fill="#ebebeb"/>
        <path id="Path_7362" data-name="Path 7362" d="M271.536,199.944l11.667-6.718a.6.6,0,0,1,.976.552v.382a2.15,2.15,0,0,1-.976,1.669l-11.667,6.732a.608.608,0,0,1-.976-.566v-.382A2.107,2.107,0,0,1,271.536,199.944Z" transform="translate(-75.847 -58.65)" fill="#ebebeb"/>
        <path id="Path_7363" data-name="Path 7363" d="M271.519,204.941l19.445-11.186a.608.608,0,0,1,.976.566v.368a2.107,2.107,0,0,1-.976,1.669l-19.389,11.2a.605.605,0,0,1-.976-.566v-.382a2.15,2.15,0,0,1,.919-1.669Z" transform="translate(-75.83 -58.429)" fill="#ebebeb"/>
        <path id="Path_7364" data-name="Path 7364" d="M271.536,208.628l19.389-11.172a.6.6,0,0,1,.976.552v.368a2.15,2.15,0,0,1-.976,1.683l-19.389,11.186a.6.6,0,0,1-.976-.552v-.4a2.15,2.15,0,0,1,.976-1.669Z" transform="translate(-75.847 -56.898)" fill="#ebebeb"/>
        <path id="Path_7365" data-name="Path 7365" d="M137.415,204.52l-4.526-2.63v20.916l4.526,2.616Z" transform="translate(-132.872 -55.01)" fill="#fc644f"/>
        <path id="Path_7366" data-name="Path 7366" d="M137.415,204.52l-4.526-2.63v20.916l4.526,2.616Z" transform="translate(-132.872 -55.01)" opacity="0.1"/>
      </g>
    </g>
    <g id="freepik--Envelope--inject-16--inject-84" transform="translate(128.702 316.692)">
      <g id="freepik--Letter--inject-16--inject-84">
        <path id="Path_7367" data-name="Path 7367" d="M87.842,287a3.79,3.79,0,0,1,1.7-2.956L176.7,233.728a3.8,3.8,0,0,1,3.408,0l1.923,1.117a3.776,3.776,0,0,1,1.7,2.942v66.808a3.776,3.776,0,0,1-1.7,2.956L94.871,357.868a3.8,3.8,0,0,1-3.408,0l-1.966-1.1a3.818,3.818,0,0,1-1.7-2.956Z" transform="translate(-87.8 -233.325)" fill="#fc644f"/>
        <path id="Path_7368" data-name="Path 7368" d="M88.18,285.309l4.837,2.828,90.057-52a3.479,3.479,0,0,0-1.2-1.273l-1.923-1.1a3.719,3.719,0,0,0-3.408,0l-87.2,50.275a3.719,3.719,0,0,0-1.16,1.273Z" transform="translate(-87.643 -233.316)" fill="#fff" opacity="0.4"/>
        <path id="Path_7369" data-name="Path 7369" d="M87.83,271.769v66.808a3.748,3.748,0,0,0,1.655,2.942l1.923,1.117a2.347,2.347,0,0,0,.467.212,3.466,3.466,0,0,0,.707.155A4.242,4.242,0,0,0,94,343l.325-.085.2-.085a.99.99,0,0,1-.806,0,1.188,1.188,0,0,1-.523-1.131v-66.85a1.485,1.485,0,0,1,.891-1.414l-.891-.509L88.353,270.1a3.493,3.493,0,0,0-.523,1.669Z" transform="translate(-87.788 -218.092)" opacity="0.1"/>
        <path id="Path_7370" data-name="Path 7370" d="M91.6,287.342l40.362,15.076a6.562,6.562,0,0,0,7.778-2.56l6.491-9.9L181.983,235.2l-34.464,55.154L182.152,303.9a3.507,3.507,0,0,1-.537,1.711l-34.2-15.1L139.9,302.559a6.548,6.548,0,0,1-8.217,2.517l-5.36-2.362L92.166,357.233a1.188,1.188,0,0,1-.523-1.131V355l34.464-52.411Z" transform="translate(-86.226 -232.548)" opacity="0.2"/>
      </g>
    </g>
    <g id="freepik--Pencil--inject-16--inject-84" transform="translate(66.083 465.736)">
      <g id="freepik--pencil--inject-16--inject-84-2" data-name="freepik--pencil--inject-16--inject-84">
        <path id="freepik--shadow--inject-16--inject-84-3" data-name="freepik--shadow--inject-16--inject-84" d="M97.927,363.811,285.452,471.758c1.853,1.061,2.079,3.762,1.414,5.8A16.73,16.73,0,0,1,276.246,488.6c-3.691,1.414-7.92.467-11.314-1.527L75.794,376.581,51.6,347.448a1.188,1.188,0,0,1,1.414-1.853Z" transform="translate(-51.3 -339.916)" fill="#ecc4b5"/>
        <g id="freepik--pencil--inject-16--inject-84-3" data-name="freepik--pencil--inject-16--inject-84" transform="translate(4.076)">
          <path id="Path_7387" data-name="Path 7387" d="M77.7,370.968l-23.264-27.62a1.1,1.1,0,0,1,1.075-1.782l35.469,7.806Z" transform="translate(-54.182 -341.544)" fill="#f28f8f"/>
          <path id="Path_7388" data-name="Path 7388" d="M55,341.56h.184l35.469,7.806-7.071,11.427-3.818-2.305L55,342.819Z" transform="translate(-53.843 -341.537)" fill="#ffa8a7"/>
          <path id="Path_7389" data-name="Path 7389" d="M55.509,341.567a1.1,1.1,0,0,0-1.075,1.782l4.54,5.388h0a6.053,6.053,0,0,1,3.564-5.233l.566-.269Z" transform="translate(-54.182 -341.544)" fill="#263238"/>
          <path id="Path_7390" data-name="Path 7390" d="M244.735,443.926l-2.828-1.725-3.451-2.093L84.306,347.08a16.08,16.08,0,0,0-9.786,6.576c-3.705,4.922-5.218,11.314-3.479,15l154.051,92.971,6.6,3.974C227.552,462.791,240.549,441.154,244.735,443.926Z" transform="translate(-47.497 -339.25)" fill="#37474f"/>
          <path id="Path_7391" data-name="Path 7391" d="M243.948,443.921,241.12,442.2l-3.437-2.093L83.534,347.09a17.112,17.112,0,0,0-11.314,8.825l160.8,98.1c-.226.41-.156.608.17.608C236.51,448.475,241.615,442.366,243.948,443.921Z" transform="translate(-46.71 -339.246)" fill="#455a64"/>
          <path id="Path_7392" data-name="Path 7392" d="M191.927,412.078l-6.392-3.847c-1.81-1.174-5.388,2.065-8.485,6.364-4.243,5.657-6.845,13.831-4.441,15.4l4.709,2.828,1.7.99c-2.4-1.57.226-9.687,4.441-15.4,3.026-4.13,6.463-7.269,8.33-6.449h0a.439.439,0,0,1,.141.113Z" transform="translate(-5.508 -314.021)" fill="#ebebeb"/>
          <path id="Path_7393" data-name="Path 7393" d="M188.876,410.29c-4.243-2.744-17.2,18.993-12.983,21.736l6.392,3.875c-4.243-2.744,8.768-24.48,12.983-21.751Z" transform="translate(-4.111 -313.167)" fill="#37474f"/>
          <path id="Path_7394" data-name="Path 7394" d="M199.581,416.75l-6.307-3.818c-4.115-2.729-16.815,18.144-13.35,21.524l.226.184,6.378,3.79C182.4,435.616,195.395,413.978,199.581,416.75Z" transform="translate(-2.343 -312.075)" fill="#ebebeb"/>
          <path id="Path_7395" data-name="Path 7395" d="M54.33,342a1.047,1.047,0,0,1,.905-.453,1.018,1.018,0,0,0-.905.453Z" transform="translate(-54.12 -341.542)" fill="#ffa8a7"/>
          <path id="Path_7396" data-name="Path 7396" d="M224.5,431.821l-26.771-16.207c-1.782-1.188-5.346,1.994-8.485,6.251-4.243,5.657-6.916,13.831-4.554,15.429h0l26.87,16.249c5.36,3.224,13.223-6.831,14.878-14.665C227.087,436.063,226.634,433.39,224.5,431.821Z" transform="translate(-0.489 -310.967)" fill="#f28f8f"/>
          <path id="Path_7397" data-name="Path 7397" d="M208.738,429.819c-4.6,4.327-7.439,11.582-6.35,16.193a4.427,4.427,0,0,0,2.461,3.281c5.3,1.74,12.417-7.651,13.987-15.061.636-2.828.2-5.431-1.824-6.986C214.975,426.043,211.835,426.878,208.738,429.819Z" transform="translate(7.111 -306.264)" opacity="0.1"/>
        </g>
      </g>
    </g>
    <g id="freepik--Characters--inject-16--inject-84" transform="translate(374.629 284.705)">
      <g id="freepik--Character--inject-16--inject-84" transform="translate(0 0)">
        <path id="Path_7405" data-name="Path 7405" d="M345.835,385.19s2.22,15.146,6.647,20.775c3.988,5.063,6.859,11.54,11.6,16.815,1.032,1.16,3.38,3.3,4.243,4.243a1.824,1.824,0,0,1-.141,2.828c-2.022,2.008-10.776,2.63-15.74-.962s-9.9-10.493-12.9-13.407l-3.917-3.875a3.974,3.974,0,0,1-1.047-3.762c.1-.382.2-.834.311-1.414.622-2.828-3.309-14.368-3.309-14.368Z" transform="translate(-243.749 -142.433)" fill="#ffa8a7"/>
        <path id="Path_7406" data-name="Path 7406" d="M334.2,406a7.806,7.806,0,0,0,.481,2.729c.495,1.075,3.026,2.687,4.624,3.451a10.281,10.281,0,0,1,5.091,5.261,18.244,18.244,0,0,0,8.627,8.316,26.2,26.2,0,0,0,15.556,1.3c6.463-1.287,6.9-5.119,6.9-5.119s.283-3.606-1.343-4.13S334.2,406,334.2,406Z" transform="translate(-242.663 -133.813)" fill="#263238"/>
        <path id="Path_7407" data-name="Path 7407" d="M333,396.331a34.321,34.321,0,0,1,.438,9.32c-.141,1.881-.17,4.837,1.245,6.491,1.952,2.616,6.067,3.394,8.74,6.958s6.633,10.013,15.146,11.526,14.906-1.3,16.433-3.748,0-4.7-5.459-7.524c-5.827-3-13.6-12.134-13.6-12.134a32.951,32.951,0,0,1-5.487-9.122l-2.065-6.59c-.453-1.287-9.617,1.414-10.578,3.309l1.1,5.841-2.362-5.515a5.968,5.968,0,0,0-3.55,1.188Z" transform="translate(-243.16 -139.955)" fill="#455a64"/>
        <path id="Path_7408" data-name="Path 7408" d="M347.18,421a10.791,10.791,0,0,1,6.109-9.334c6.322-3.394,10.253-1.414,12.233,0,2.376,1.641,5.77,5.077,3.79,7.651-2.121,2.828-5.657,4.243-12.12,4.37A15.556,15.556,0,0,1,347.18,421Z" transform="translate(-237.287 -132.241)" fill="#fafafa"/>
        <path id="Path_7409" data-name="Path 7409" d="M340.928,405.479a.75.75,0,0,0,.58-.325c.707-1.018,5.289-4.893,9.8-3.734.226-.523-.17-1.047-1.1-1.584-4.724-.339-9.079,3.309-9.9,4.554a.665.665,0,0,0,.212.962A.749.749,0,0,0,340.928,405.479Z" transform="translate(-240.185 -136.375)" fill="#fafafa"/>
        <path id="Path_7410" data-name="Path 7410" d="M353.075,403.762a2.206,2.206,0,0,0-1.3-1.542,13.407,13.407,0,0,0-9.348,4.582.665.665,0,0,0,.212.962.721.721,0,0,0,1.018-.2C344.349,406.576,348.691,402.9,353.075,403.762Z" transform="translate(-239.307 -135.379)" fill="#fafafa"/>
        <path id="Path_7411" data-name="Path 7411" d="M350.181,399.35a1.3,1.3,0,0,0-.919-1.754c-5.176-1.131-10.2,3.041-11.116,4.384a.665.665,0,0,0,.212.962.693.693,0,0,0,.438.127.764.764,0,0,0,.58-.325C340.126,401.641,345.358,397.257,350.181,399.35Z" transform="translate(-241.08 -137.374)" fill="#fafafa"/>
        <path id="Path_7412" data-name="Path 7412" d="M358.487,408.9a4.017,4.017,0,0,0-2.051-1.853,13.251,13.251,0,0,0-9.73,4.568.679.679,0,0,0,.212.976.778.778,0,0,0,.438.113.763.763,0,0,0,.58-.325C348.686,411.307,353.749,407.05,358.487,408.9Z" transform="translate(-237.534 -133.378)" fill="#fafafa"/>
        <path id="Path_7413" data-name="Path 7413" d="M345.228,410.3a.721.721,0,0,0,.566-.325c.707-1,5.19-4.794,9.659-3.762a2.489,2.489,0,0,0-1.542-1.584,13.336,13.336,0,0,0-9.334,4.582.679.679,0,0,0,.2.976.863.863,0,0,0,.452.113Z" transform="translate(-238.418 -134.381)" fill="#fafafa"/>
        <path id="Path_7414" data-name="Path 7414" d="M278.352,310.243c-1.047,9.475-3.224,15.259.566,23.575,3.889,8.485,14.68,14.75,26.658,22.387,11.116,7.071,21.92,15.118,24.678,16.971,2.97,1.994,4.511,3.14,5.134,8.061.721,5.77,3.451,15.019,9.546,27.068,6.944,13.76,9.645,20.633,9.645,20.633s8.924-2.927,15.726-5.77c0,0-12.106-55.9-14.807-63.428s-31.636-31.523-31.636-31.523,2.828-12.049,4.936-20.817Z" transform="translate(-266.45 -174.655)" fill="#37474f"/>
        <path id="Path_7415" data-name="Path 7415" d="M372.422,375.84s4.016,12.4,7.227,18.215a89.474,89.474,0,0,0,11.4,16.518c1,1.131,3.309,3.224,4.144,4.144a1.81,1.81,0,0,1-.141,2.828c-1.994,1.966-10.578,2.588-15.472-.948s-9.73-10.31-12.657-13.166l-3.847-3.8a3.9,3.9,0,0,1-1.032-3.691c.1-.368.2-.82.311-1.329.608-2.828-3.253-14.142-3.253-14.142Z" transform="translate(-232.349 -146.306)" fill="#ffa8a7"/>
        <path id="Path_7416" data-name="Path 7416" d="M305.822,297.59c-1.57,8.782-2.051,13.76,1.032,22.628s10.3,22.967,22.7,29.911c10.267,5.742,23.6,12.813,26.531,14.51,2.56,1.513,4.568,3.507,5.572,9.9.905,5.742,3.9,12.29,10.55,24.042a173.219,173.219,0,0,1,9.7,19.191,91.11,91.11,0,0,1,15.316-5.657s-14.736-54.957-17.437-62.48-22.4-18.583-30.773-23.434-13.124-7.877-22.726-14.4Z" transform="translate(-254.93 -178.718)" fill="#37474f"/>
        <path id="Path_7417" data-name="Path 7417" d="M361.6,394.69a7.834,7.834,0,0,0,.481,2.673c.481,1.061,2.97,2.645,4.54,3.394a10.07,10.07,0,0,1,4.992,5.162,18.031,18.031,0,0,0,8.485,8.174,25.753,25.753,0,0,0,15.231,1.273c6.336-1.273,6.788-5.035,6.788-5.035s.255-3.521-1.329-4.059S361.6,394.69,361.6,394.69Z" transform="translate(-231.314 -138.498)" fill="#263238"/>
        <path id="Path_7418" data-name="Path 7418" d="M360.44,385.094a34.265,34.265,0,0,1,.438,9.15c-.141,1.839-.184,4.752,1.2,6.378,1.923,2.56,5.968,3.323,8.6,6.831s6.505,9.9,14.878,11.314,14.623-1.273,16.122-3.677,0-4.61-5.346-7.382c-5.728-2.956-13.378-11.922-13.378-11.922a32.13,32.13,0,0,1-5.374-8.966l-1.7-6.1c-.453-1.259-9.588,1.089-10.55,2.828l1.131,5.572-2.5-5.233Z" transform="translate(-231.794 -144.43)" fill="#455a64"/>
        <path id="Path_7419" data-name="Path 7419" d="M374.35,409.407a10.592,10.592,0,0,1,6-9.164c6.223-3.323,10.083-1.329,12.021,0,2.319,1.6,5.657,4.978,3.734,7.51-2.107,2.744-5.515,4.087-11.922,4.243A15.288,15.288,0,0,1,374.35,409.407Z" transform="translate(-226.032 -136.951)" fill="#fafafa"/>
        <path id="Path_7420" data-name="Path 7420" d="M368.221,394.16a.707.707,0,0,0,.566-.311c.693-1,5.19-4.808,9.631-3.663.212-.509-.17-1.032-1.075-1.556a12.94,12.94,0,0,0-9.758,4.469.665.665,0,0,0,.2.948A.735.735,0,0,0,368.221,394.16Z" transform="translate(-228.884 -141.008)" fill="#fafafa"/>
        <path id="Path_7421" data-name="Path 7421" d="M380.149,392.443a2.206,2.206,0,0,0-1.287-1.513,13.251,13.251,0,0,0-9.178,4.5.679.679,0,0,0,.212.962.778.778,0,0,0,.438.113.693.693,0,0,0,.552-.311C371.593,395.272,375.836,391.665,380.149,392.443Z" transform="translate(-228.013 -140.056)" fill="#fafafa"/>
        <path id="Path_7422" data-name="Path 7422" d="M377.3,388.16a1.273,1.273,0,0,0-.905-1.725c-5.077-1.1-10,2.984-10.918,4.243a.693.693,0,0,0,.212.962.82.82,0,0,0,.438.113.764.764,0,0,0,.566-.311C367.438,390.409,372.572,386.1,377.3,388.16Z" transform="translate(-229.756 -141.995)" fill="#fafafa"/>
        <path id="Path_7423" data-name="Path 7423" d="M385.423,397.53a4.031,4.031,0,0,0-2.008-1.81,13.011,13.011,0,0,0-9.56,4.483.665.665,0,0,0,.2.947.736.736,0,0,0,.438.113.693.693,0,0,0,.566-.3C375.849,399.892,380.813,395.72,385.423,397.53Z" transform="translate(-226.287 -138.071)" fill="#fafafa"/>
        <path id="Path_7424" data-name="Path 7424" d="M372.432,398.912A.749.749,0,0,0,373,398.6c.679-1,5.091-4.724,9.475-3.705a2.432,2.432,0,0,0-1.513-1.556,13.18,13.18,0,0,0-9.164,4.5.679.679,0,0,0,.2.962A.82.82,0,0,0,372.432,398.912Z" transform="translate(-227.141 -139.057)" fill="#fafafa"/>
        <path id="Path_7425" data-name="Path 7425" d="M316.293,316.57a68.289,68.289,0,0,1-6.223,7.849l1.768,1.485a24.975,24.975,0,0,0,4.455-9.334Z" transform="translate(-252.658 -170.857)" fill="#37474f"/>
        <path id="Path_7426" data-name="Path 7426" d="M320.862,256.29c7.863,1.2,12.417,5.346,12.643,11.554s-9.56,30-9.56,30q7.212,6.505,14.849,12.53c1.952,1.527,3.946,3.041,5.94,4.526,1.131.834,4.766,2.659,4.964,4.115a2.546,2.546,0,0,1-.325,1.414c-1.9,4.073-6.251,7.623-10.692,5.855-3.818-1.527-7.99-3.507-11.78-5.416a101.756,101.756,0,0,1-11.483-6.477c-2.319-1.57-4.794-2.828-6.477-5.091C306.2,305.377,320.862,256.29,320.862,256.29Z" transform="translate(-253.268 -195.826)" fill="#e0e0e0"/>
        <path id="Path_7427" data-name="Path 7427" d="M294.12,264.825c-2.687,4.045-10.79,27.62-16.73,72.125,7.92,8.613,47.97,10.706,60.1-7.665,0,0,5.275-40.418,5.19-49.229,0-6.1,1.782-19.8-8.9-23.632l-15.981-1.075-18.342,2.517A61.156,61.156,0,0,0,294.12,264.825Z" transform="translate(-266.195 -196.215)" fill="#f5f5f5"/>
        <path id="Path_7428" data-name="Path 7428" d="M304.55,264.1c2.744,1.994,7.778,3.479,10.918,2.63s4.243-3.833,4.469-6.873l-3.649.523-1.414,2.22-1.839-1.414Z" transform="translate(-254.945 -194.347)" fill="#fc644f"/>
        <path id="Path_7429" data-name="Path 7429" d="M304.55,264.1c2.744,1.994,7.778,3.479,10.918,2.63s4.243-3.833,4.469-6.873l-3.649.523-1.414,2.22-1.839-1.414Z" transform="translate(-254.945 -194.347)" opacity="0.3"/>
        <circle id="Ellipse_171" data-name="Ellipse 171" cx="16.447" cy="16.447" r="16.447" transform="translate(44.23 29.523) rotate(-63.83)" fill="#263238"/>
        <path id="Path_7430" data-name="Path 7430" d="M295.85,236.44s2.079,12.629,3.041,14.736A5.657,5.657,0,0,0,302.044,254l.226-8.811Z" transform="translate(-258.548 -204.048)" fill="#263238"/>
        <path id="Path_7431" data-name="Path 7431" d="M300.718,223.9a6.166,6.166,0,0,0-5.176,1.556c-2.305,2.135-1.414,9.207.99,16.207l4.992.82Z" transform="translate(-259.231 -209.274)" fill="#263238"/>
        <path id="Path_7432" data-name="Path 7432" d="M303.437,244.574c-1.089-.141-1.414-1.881-2.6-3.239a4.95,4.95,0,0,0-7.905,1.2c-2.263,4.243,1.3,10.154,4.441,11.314,5.416,1.98,6.406-1.5,6.406-1.5l-.523,19.8c3.168,3.875,15.3,5.841,16.758,7.3,0,0,2.249-4,1.146-6.986l.269-6.025a34.237,34.237,0,0,0,7.382.721c4.073-.424,6.76-3.493,8.2-7.807,2.291-6.93,3.309-12.572,2.291-26.46-1.1-15.231-18.71-16.221-28.5-10.677S303.437,244.574,303.437,244.574Z" transform="translate(-260.054 -211.22)" fill="#f8d2c4"/>
        <path id="Path_7433" data-name="Path 7433" d="M301.424,247.617c-.948-.2-1.74-3.677-2.942-4.865-1.655-1.669.707-15.556.707-15.556a6.76,6.76,0,0,1,2.022-7.071,14.354,14.354,0,0,1,13.8-4,130.686,130.686,0,0,0,13.251,2.291,30.335,30.335,0,0,0,13.746-1.626,14.143,14.143,0,0,1-.863,7.3,11.314,11.314,0,0,1-4.724,5.162c-2.348,1.414-4.738,2.192-9.645,2.39a56.272,56.272,0,0,1-17.932-1.937c-1.853-.354-2.333,1.414-3.578,6.336C304.2,240.348,305.766,248.48,301.424,247.617Z" transform="translate(-257.702 -212.637)" fill="#263238"/>
        <path id="Path_7434" data-name="Path 7434" d="M300.516,226.232l-5.926-3.55a3.366,3.366,0,0,1,4.681-1.315,3.634,3.634,0,0,1,1.245,4.865Z" transform="translate(-259.07 -210.485)" fill="#263238"/>
        <path id="Path_7435" data-name="Path 7435" d="M317.6,255.114s-8.938-2.249-12.007-4.073a10.409,10.409,0,0,1-4.158-4.511,14.313,14.313,0,0,0,2.234,5.2c2.178,3.055,13.817,5.77,13.817,5.77Z" transform="translate(-256.233 -199.868)" fill="#f28f8f"/>
        <path id="Path_7436" data-name="Path 7436" d="M336.354,233.845h-.75a22.629,22.629,0,0,0-7.58.622c-2.461.863-3.366,1.725-4.709,1.8s-2.263-.707-4.78-1.3a25.612,25.612,0,0,0-8.061.184l-.82.127a1.513,1.513,0,0,0-1,1.414,2.6,2.6,0,0,0,.665,1.5,1.656,1.656,0,0,1,.226.608,25.023,25.023,0,0,0,.679,4.243,4.526,4.526,0,0,0,.919,1.485,3.665,3.665,0,0,0,.495.438l.3.184a3.562,3.562,0,0,0,.877.382h.622a4.69,4.69,0,0,0,.792.085H315a6.35,6.35,0,0,0,5.756-3.465c.933-1.655.891-3.946,2.418-4.016h.283c1.1.212.82,2.319,1.414,3.79a5.02,5.02,0,0,0,.962,1.6,1.938,1.938,0,0,0,.24.24l.127.113a.551.551,0,0,0,.141.113l.113.1.141.085.113.071h.071a4.593,4.593,0,0,0,1.287.453h.113a6.507,6.507,0,0,0,1.612,0,5.4,5.4,0,0,0,4.893-3.21,28.917,28.917,0,0,0,1.259-4.327,1.414,1.414,0,0,1,.325-.58,3.3,3.3,0,0,0,.806-1.612A1.009,1.009,0,0,0,336.354,233.845Zm-16.348,6.887a5.43,5.43,0,0,1-1.315,2.305h0a5.331,5.331,0,0,1-3.705,1.414,3.536,3.536,0,0,1-3.366-1.414l-.1-.156-.085-.156a.666.666,0,0,1-.071-.141.178.178,0,0,0-.071-.141v-.354h0a1.632,1.632,0,0,0-.141-.467h0a.425.425,0,0,0-.071-.283c-.071-.1,0-.311,0-.453v-.17c-.184-1.117-.325-3.323.283-3.861a7.071,7.071,0,0,1,4.61-1.018h.255a3.315,3.315,0,0,1,1.117.127l.424.085a9.789,9.789,0,0,1,1.075.3l.325.127.354.156h.071l.127.071a2.023,2.023,0,0,1,.707.566,5.12,5.12,0,0,1-.424,3.465Zm14.439-1.23a5.657,5.657,0,0,1-2.6,3.748,4.469,4.469,0,0,1-1.867.495,3.521,3.521,0,0,1-3.564-1.513h0v-.1l-.071-.113h0l-.085-.184-.085-.2a.924.924,0,0,0,0-.1h0v-.156a5.145,5.145,0,0,1-.17-.834,5.416,5.416,0,0,1,.325-3.422,7.65,7.65,0,0,1,4.158-1.881,9.134,9.134,0,0,1,1.131-.141h2.39l.269.1h0a1.7,1.7,0,0,1,.58.354c.368.552-.085,2.786-.41,3.946Z" transform="translate(-253.247 -205.158)" fill="#37474f"/>
        <path id="Path_7437" data-name="Path 7437" d="M314.494,235.245,297,234a5.148,5.148,0,0,1,2.531,1.994l14.623,1.414Z" transform="translate(-258.072 -205.059)" fill="#37474f"/>
        <path id="Path_7438" data-name="Path 7438" d="M315.408,238.185a1.589,1.589,0,1,1-3.154-.4,1.573,1.573,0,0,1,3.125.354Z" transform="translate(-251.759 -204.067)" fill="#263238"/>
        <path id="Path_7439" data-name="Path 7439" d="M313.16,245l5.261,2.659a2.9,2.9,0,0,1-3.932,1.414A3.1,3.1,0,0,1,313.16,245Z" transform="translate(-251.505 -200.502)" fill="#f28f8f"/>
        <path id="Path_7440" data-name="Path 7440" d="M325.87,233.764l-3.96-1.1a2.055,2.055,0,0,1,3.96,1.1Z" transform="translate(-247.754 -206.237)" fill="#263238"/>
        <path id="Path_7441" data-name="Path 7441" d="M315.174,232.991l-3.946,1.2a2.065,2.065,0,0,1,3.946-1.2Z" transform="translate(-252.205 -206.044)" fill="#263238"/>
        <path id="Path_7442" data-name="Path 7442" d="M325.053,237.978a1.584,1.584,0,1,1-1.414-1.8,1.612,1.612,0,0,1,1.414,1.8Z" transform="translate(-247.758 -204.158)" fill="#263238"/>
        <path id="Path_7443" data-name="Path 7443" d="M318.678,237.046l-.368,9.716,6.039-1.626-5.063-8.245a1.074,1.074,0,0,0-.608.156Z" transform="translate(-249.245 -203.862)" fill="#f28f8f"/>
        <path id="Path_7444" data-name="Path 7444" d="M296.67,331.187v1.16a3.253,3.253,0,0,0,1.626,2.828l31,17.847a3.381,3.381,0,0,0,1.641.424,3.268,3.268,0,0,0,1.612-.424l56.894-32.852a3.253,3.253,0,0,0,1.626-2.828v-.792l-60.133,34.719Z" transform="translate(-258.209 -170.865)" fill="#ebebeb"/>
        <path id="Path_7445" data-name="Path 7445" d="M391.069,322.328,357.34,302.855a1.966,1.966,0,0,0-1.937,0l-58.52,33.8a.424.424,0,0,0,0,.735l34.054,19.672Z" transform="translate(-258.209 -176.643)" fill="#fafafa"/>
        <path id="Path_7446" data-name="Path 7446" d="M329.87,309.02c2.616.99,3.026,2.15,5.148,3.352a15.259,15.259,0,0,0,7.58,2.065,26.135,26.135,0,0,1,4.879,2.319c2.828,1.909,3.917,2.319,7.368,1.245,3.762-1.188,1.1-4.921,0-6.76a65.926,65.926,0,0,0-5.784-7.962c-1.2-1.1-7.481-2.079-12.9-5.388C331.977,299.46,330.167,303.5,329.87,309.02Z" transform="translate(-244.457 -178.594)" fill="#f8d2c4"/>
        <path id="Path_7447" data-name="Path 7447" d="M326.011,351.15l-18.2-10.493,53.2-30.717L379.3,320.377Z" transform="translate(-253.594 -173.603)" fill="#e0e0e0"/>
        <path id="Path_7448" data-name="Path 7448" d="M314.35,321.178l.339.2,8.924,5.148,15.853-9.164.325-.184-9.249-5.346Z" transform="translate(-250.885 -172.82)" fill="#e0e0e0"/>
        <path id="Path_7449" data-name="Path 7449" d="M314.59,321.264l8.924,5.148,15.853-9.164-8.924-5.148Z" transform="translate(-250.786 -172.708)" fill="#e6e6e6"/>
        <path id="Path_7450" data-name="Path 7450" d="M320.9,351.273v2.164a3.266,3.266,0,0,0,1.612-.424l56.894-32.852a3.253,3.253,0,0,0,1.626-2.828v-.792Z" transform="translate(-248.172 -170.869)" fill="#ebebeb"/>
        <g id="Group_820" data-name="Group 820" transform="translate(72.728 145.671)" opacity="0.5">
          <path id="Path_7451" data-name="Path 7451" d="M320.9,351.273v2.164a3.266,3.266,0,0,0,1.612-.424l56.894-32.852a3.253,3.253,0,0,0,1.626-2.828v-.792Z" transform="translate(-320.9 -316.54)" fill="#e0e0e0"/>
        </g>
        <path id="Path_7452" data-name="Path 7452" d="M321.54,363.7a3.818,3.818,0,0,0,3.323-.255l56.639-32.7a3.861,3.861,0,0,0,1.881-2.687l6.194-36.982a4.836,4.836,0,0,0,0-.636,3.861,3.861,0,0,0-1.145-2.744l-58.86,33.941a2.828,2.828,0,0,0-1.414,1.994Z" transform="translate(-247.907 -182.815)" fill="#ebebeb"/>
        <path id="Path_7453" data-name="Path 7453" d="M320.9,363.391l.382.212a4.46,4.46,0,0,0,.523.255l6.7-40.008a2.828,2.828,0,0,1,1.414-1.994l58.86-33.941a4.042,4.042,0,0,0-.778-.594l-58.987,34.054a2.828,2.828,0,0,0-1.414,1.994Z" transform="translate(-248.172 -182.973)" fill="#fafafa"/>
        <path id="Path_7454" data-name="Path 7454" d="M344.116,319.707a12.5,12.5,0,0,1,5.657-7.354c2.729-1.57,4.61-.849,4.243,1.626a12.445,12.445,0,0,1-5.657,7.34C345.587,322.9,343.706,322.182,344.116,319.707Z" transform="translate(-238.579 -172.947)" fill="#fc644f"/>
        <path id="Path_7455" data-name="Path 7455" d="M313.072,341.945c-6.322-3.21-28.412-14.142-35.539-18.385-5.9-3.507-8.3-6.647-7.608-11.045.636-4.087,9.9-34.535,13.591-42.327,3.281-6.845,10.932-10.932,18.385-12.657,5.19,6.039,1.414,23.957-3.635,30.5a227.683,227.683,0,0,0-8.047,22.033s10.338,7.99,19.7,13.732c5.077,3.111,9.687,6.845,13.831,9.009,3.635,1.881,9.108,5.431,10.069,6.732s5.77,9.093,6.887,10.918c3.026,4.978.382,6.025-3.536,6.491-3.592.424-6.067-1.527-8.485-3.932A35.942,35.942,0,0,1,325.6,349.3a13.647,13.647,0,0,1-7.637-3.069C316.169,344.66,313.072,341.945,313.072,341.945Z" transform="translate(-269.335 -195.312)" fill="#f8d2c4"/>
        <path id="Path_7456" data-name="Path 7456" d="M273.485,298.239s4.61-15.556,6.859-21.68c3.125-8.485,4.568-10.875,9.4-15.556,4.243-4.172,13.039-3.861,13.039-3.861,3.592,3.055,4.243,8.217,2.828,17.169a35.977,35.977,0,0,1-6.081,14.977l-8.2,20.464,24.791,18.2a17.494,17.494,0,0,0-8.132,11.526s-21.878-10.451-28.864-14.142-10.437-6.124-9.5-12.12A122.234,122.234,0,0,1,273.485,298.239Z" transform="translate(-269.474 -195.475)" fill="#e0e0e0"/>
        <path id="Path_7457" data-name="Path 7457" d="M301.549,251.94c-1.853.481-3.394,3.9-4.526,5.36s1.6,7.792,7.071,10.819,8.839,3.041,8.839,3.041.665-3.932,1.655-4.922a2.828,2.828,0,0,1,3.55-.354s0-2.645-3.536-3.125-10.748-3.62-13.11-8.1Z" transform="translate(-258.167 -197.628)" fill="#e0e0e0"/>
        <path id="Path_7458" data-name="Path 7458" d="M311.876,265.366a5.77,5.77,0,0,1,.552-2.984,9.8,9.8,0,0,0,.594-4l.226-5.19a3.7,3.7,0,0,1,1.853.948,21.808,21.808,0,0,1,2.362,4.794c.438,1.669.509,7.354-.834,9.277,0,0-.764-3.281-1.824-3.988C313.262,263.217,311.876,265.366,311.876,265.366Z" transform="translate(-251.919 -197.11)" fill="#e0e0e0"/>
        <path id="Path_7459" data-name="Path 7459" d="M312.021,267.241c-1.315,8.627-4.483,38.948-4.37,41.663s4.03,13.661,6.293,11.922c1.23-.948,6.1-12.29,5.9-15.175s-3.592-39.428-3.592-39.428S314.015,263.479,312.021,267.241Z" transform="translate(-253.662 -192.111)" fill="#fc644f"/>
        <path id="Path_7460" data-name="Path 7460" d="M315.163,266.223s-2.234-2.744-4.243,1.018c-.184,1.2-.41,2.828-.651,4.752a16.714,16.714,0,0,1,1.98-4.243,7.622,7.622,0,0,1,2.913-1.527Z" transform="translate(-252.575 -192.111)" opacity="0.15"/>
        <path id="Path_7461" data-name="Path 7461" d="M312.877,261.168c-2.362.453-3.507,1.315-3.437,2.97A11.313,11.313,0,0,0,311.279,269a5.657,5.657,0,0,1,4.243-1.018,9.546,9.546,0,0,0,1.075-4.243C316.639,261.352,315.663,260.644,312.877,261.168Z" transform="translate(-252.92 -193.873)" fill="#fc644f"/>
      </g>
    </g>
    <g id="freepik--Clock--inject-16--inject-84" transform="translate(364.576 43.782)">
      <path id="Path_7243" data-name="Path 7243" d="M150.38,126.725H150.3L134.64,117.66h-.127c-9.9-5.006-23.038-3.536-37.222,5.657C68.794,141.7,47.015,184,48.655,217.857c.82,16.872,7.312,28.454,17.14,33.559h.085L81.55,260.5h.113c9.9,5.02,23.052,3.55,37.25-5.586,28.5-18.385,50.275-60.684,48.621-94.54C166.686,143.356,160.209,131.831,150.38,126.725Z" transform="translate(-42.924 -106.826)" fill="#37474f"/>
      <path id="Path_7244" data-name="Path 7244" d="M80.8,243.76l-14.934-8.7h-.1c-9.815-5.119-16.306-16.7-17.126-33.559-.735-15.146,3.2-31.947,10.281-47.5l15.712,9.079c-7.071,15.556-11.031,32.343-10.3,47.447C65.107,227.044,71.33,238.485,80.8,243.76Z" transform="translate(-42.929 -90.6)" fill="#263238"/>
      <ellipse id="Ellipse_170" data-name="Ellipse 170" cx="75.18" cy="43.402" rx="75.18" ry="43.402" transform="translate(0 133.709) rotate(-62.78)" fill="#455a64"/>
      <path id="Path_7245" data-name="Path 7245" d="M87.257,246.7c-16.8.806-19.53-18.088-19.926-26.248C65.917,190.6,85.885,151.693,111.016,135.5c6.406-4.115,12.643-6.435,18.06-6.7,16.8-.806,19.53,18.088,19.926,26.248C150.416,184.9,130.447,223.8,105.3,240c-6.392,4.115-12.629,6.435-18.045,6.7Z" transform="translate(-35.182 -101.049)" fill="#fafafa"/>
      <path id="Path_7246" data-name="Path 7246" d="M99.061,188.2a1.7,1.7,0,0,1-.594-.1,1.81,1.81,0,0,1-1.245-1.725v-43.2a1.838,1.838,0,1,1,3.663,0v37.873l20.153-25.88a1.824,1.824,0,0,1,2.828,2.249L100.5,187.511A1.824,1.824,0,0,1,99.061,188.2Z" transform="translate(-22.774 -95.911)" fill="#37474f"/>
      <path id="Path_7247" data-name="Path 7247" d="M91.457,207.448a.806.806,0,0,1-.255,0,.764.764,0,0,1-.523-.948l10.14-34.182a.778.778,0,0,1,.962-.509.764.764,0,0,1,.509.948L92.164,206.939A.82.82,0,0,1,91.457,207.448Z" transform="translate(-25.494 -83.236)" fill="#fc644f"/>
      <path id="Path_7248" data-name="Path 7248" d="M99.788,167.291c3.352-2.164,6.223-.679,6.421,3.309a13.873,13.873,0,0,1-5.728,11.116c-3.352,2.164-6.223.679-6.421-3.309A13.831,13.831,0,0,1,99.788,167.291Z" transform="translate(-24.081 -85.506)" fill="#fc644f"/>
    </g>
  </g>
</svg>
