<svg xmlns="http://www.w3.org/2000/svg" xmlns:xlink="http://www.w3.org/1999/xlink" width="400" height="400" viewBox="0 0 400 400"><defs><style>.cls-1{isolation:isolate;}.cls-2{fill:url(#linear-gradient);}.cls-3{opacity:0.27;fill:url(#linear-gradient-2);}.cls-10,.cls-11,.cls-3,.cls-4,.cls-5,.cls-6,.cls-7,.cls-8,.cls-9{mix-blend-mode:soft-light;}.cls-4{fill:url(#linear-gradient-3);}.cls-5{fill:url(#linear-gradient-4);}.cls-6{fill:url(#linear-gradient-5);}.cls-7{fill:url(#linear-gradient-6);}.cls-8{fill:url(#linear-gradient-7);}.cls-9{fill:url(#linear-gradient-8);}.cls-10{fill:url(#linear-gradient-9);}.cls-11{fill:url(#linear-gradient-10);}</style><linearGradient id="linear-gradient" x1="1.1" y1="401" x2="1.1" y2="400.79" gradientTransform="matrix(1920, 0, 0, -1920, -1919, 769921)" gradientUnits="userSpaceOnUse"><stop offset="0" stop-color="#ff7f3d"/><stop offset="1" stop-color="#fc644f"/></linearGradient><linearGradient id="linear-gradient-2" x1="201.21" y1="199.88" x2="292.02" y2="199.88" gradientUnits="userSpaceOnUse"><stop offset="0.01" stop-color="#b5b4b4"/><stop offset="1" stop-color="#8a8a89"/></linearGradient><linearGradient id="linear-gradient-3" x1="62.72" y1="199.88" x2="135.49" y2="199.88" xlink:href="#linear-gradient-2"/><linearGradient id="linear-gradient-4" x1="0.03" y1="200" x2="399.97" y2="200" xlink:href="#linear-gradient-2"/><linearGradient id="linear-gradient-5" x1="0.03" y1="294.89" x2="392.7" y2="294.89" xlink:href="#linear-gradient-2"/><linearGradient id="linear-gradient-6" x1="0.03" y1="200.07" x2="399.83" y2="200.07" xlink:href="#linear-gradient-2"/><linearGradient id="linear-gradient-7" x1="-4713.31" y1="1342.92" x2="-4383.76" y2="1342.92" gradientTransform="translate(-4313.68 1495.93) rotate(180)" xlink:href="#linear-gradient-2"/><linearGradient id="linear-gradient-8" x1="-337.62" y1="819.56" x2="-31.54" y2="819.56" gradientTransform="translate(959.55 337.78) rotate(90)" xlink:href="#linear-gradient-2"/><linearGradient id="linear-gradient-9" x1="0.38" y1="314.52" x2="185.88" y2="314.52" xlink:href="#linear-gradient-2"/><linearGradient id="linear-gradient-10" x1="0.03" y1="295.21" x2="228.23" y2="295.21" xlink:href="#linear-gradient-2"/></defs><title>Untitled-1</title><g class="cls-1"><g id="Layer_1" data-name="Layer 1"><rect id="Layer_24" data-name="Layer 24" class="cls-2" width="400" height="400"/><rect class="cls-3" x="201.21" width="90.81" height="399.76"/><rect class="cls-4" x="62.72" width="72.78" height="399.76"/><rect class="cls-5" x="0.03" width="399.93" height="400"/><polygon class="cls-6" points="0.03 371.65 0.03 399.96 392.7 399.96 164.46 189.81 0.03 371.65"/><polygon class="cls-7" points="0.03 168.17 155.09 0.17 191.23 0.17 399.83 194.28 399.83 399.96 0.03 399.96 0.03 168.17"/><polygon class="cls-8" points="266.53 0.17 398.15 124.19 399.63 305.86 70.08 0.17 266.53 0.17"/><polygon class="cls-9" points="0.38 66.43 60.02 0.17 279.58 0.17 0.38 306.24 0.38 66.43"/><polygon class="cls-10" points="46.79 399.75 0.38 356.69 0.38 229.29 185.88 399.72 46.79 399.75"/><polygon class="cls-11" points="0.08 190.65 228.23 399.76 209.9 399.76 0.03 205.91 0.08 190.65"/><rect class="cls-5" x="0.03" width="399.93" height="400"/></g></g></svg>