<svg xmlns="http://www.w3.org/2000/svg" width="95.316" height="94.977" viewBox="0 0 95.316 94.977">
  <g id="Group_816" data-name="Group 816" transform="translate(-1426.463 -1078.512)">
    <path id="Path_74" data-name="Path 74" d="M54.715,376.465H8.509a5.709,5.709,0,0,1-5.7-5.7L2.7,351.311a1.394,1.394,0,1,0-2.787,0L.02,370.763a8.5,8.5,0,0,0,8.489,8.489H54.715a1.394,1.394,0,0,0,0-2.787Z" transform="translate(1426.552 784.914)"/>
    <path id="Path_75" data-name="Path 75" d="M86.827,6.753H82.758V5a4.089,4.089,0,0,0-8.177,0V6.753H70.346V5a4.089,4.089,0,0,0-8.177,0V6.753H57.934V5a4.089,4.089,0,0,0-8.177,0V6.753H45.521V5a4.089,4.089,0,0,0-8.177,0V6.753H33.109V5a4.089,4.089,0,0,0-8.177,0V6.753H20.7V5a4.089,4.089,0,0,0-8.177,0V6.753H8.49A8.5,8.5,0,0,0,0,15.242V62.733a1.394,1.394,0,0,0,2.787,0V22.962H92.529V62.351a1.394,1.394,0,0,0,2.787,0V15.242a8.5,8.5,0,0,0-8.489-8.489ZM77.368,5a1.3,1.3,0,0,1,2.6,0v6.292a1.3,1.3,0,0,1-2.6,0ZM64.956,5a1.3,1.3,0,0,1,2.6,0v6.292a1.3,1.3,0,0,1-2.6,0ZM52.544,5a1.3,1.3,0,0,1,2.6,0v6.292a1.3,1.3,0,0,1-2.6,0ZM40.131,5a1.3,1.3,0,0,1,2.6,0v6.292a1.3,1.3,0,0,1-2.6,0ZM27.719,5a1.3,1.3,0,0,1,2.6,0v6.292a1.3,1.3,0,0,1-2.6,0ZM15.307,5a1.3,1.3,0,0,1,2.6,0v6.292a1.3,1.3,0,0,1-2.6,0ZM2.787,20.175V15.242a5.709,5.709,0,0,1,5.7-5.7h4.03v1.752a4.089,4.089,0,0,0,8.177,0V9.54h4.235v1.752a4.089,4.089,0,0,0,8.177,0V9.54h4.235v1.752a4.089,4.089,0,0,0,8.177,0V9.54h4.235v1.752a4.089,4.089,0,0,0,8.177,0V9.54h4.235v1.752a4.089,4.089,0,0,0,8.177,0V9.54h4.235v1.752a4.089,4.089,0,0,0,8.177,0V9.54h4.069a5.709,5.709,0,0,1,5.7,5.7v4.933Z" transform="translate(1426.463 1077.6)"/>
    <path id="Path_76" data-name="Path 76" d="M126.847,145.652v-4.962a3.563,3.563,0,0,0-3.559-3.559H53.738a3.563,3.563,0,0,0-3.559,3.559v4.962a3.563,3.563,0,0,0,3.559,3.559h15.1a1.394,1.394,0,1,0,0-2.787h-15.1a.772.772,0,0,1-.772-.771v-4.962a.772.772,0,0,1,.772-.771h69.55a.772.772,0,0,1,.772.771v4.962a.772.772,0,0,1-.772.771H68.931a1.394,1.394,0,0,0,0,2.787h54.357A3.562,3.562,0,0,0,126.847,145.652Z" transform="translate(1385.608 966.691)"/>
    <path id="Path_77" data-name="Path 77" d="M238.546,226.058a2.869,2.869,0,0,0-2.866-2.866h-4.874a2.869,2.869,0,0,0-2.866,2.866v3.631a2.869,2.869,0,0,0,2.866,2.866h4.874a2.869,2.869,0,0,0,2.866-2.866Zm-2.787,3.631a.079.079,0,0,1-.079.079h-4.874a.079.079,0,0,1-.079-.079v-3.631a.079.079,0,0,1,.079-.079h4.874a.079.079,0,0,1,.079.079Z" transform="translate(1240.879 896.623)"/>
    <path id="Path_78" data-name="Path 78" d="M164.2,226.058a2.869,2.869,0,0,0-2.866-2.866h-4.874a2.869,2.869,0,0,0-2.866,2.866v3.631a2.869,2.869,0,0,0,2.866,2.866h4.874a2.869,2.869,0,0,0,2.866-2.866Zm-2.787,3.631a.079.079,0,0,1-.078.079h-4.874a.079.079,0,0,1-.079-.079v-3.631a.079.079,0,0,1,.079-.079h4.874a.078.078,0,0,1,.078.079Z" transform="translate(1301.411 896.623)"/>
    <path id="Path_79" data-name="Path 79" d="M89.851,226.058a2.869,2.869,0,0,0-2.866-2.866H82.111a2.869,2.869,0,0,0-2.866,2.866v3.631a2.869,2.869,0,0,0,2.866,2.866h4.874a2.869,2.869,0,0,0,2.866-2.866Zm-2.787,3.631a.079.079,0,0,1-.078.079H82.111a.078.078,0,0,1-.078-.079v-3.631a.079.079,0,0,1,.078-.079h4.874a.078.078,0,0,1,.078.079Z" transform="translate(1361.943 896.623)"/>
    <path id="Path_80" data-name="Path 80" d="M310.027,232.554a2.869,2.869,0,0,0,2.866-2.866v-3.631a2.869,2.869,0,0,0-2.866-2.866h-4.874a2.869,2.869,0,0,0-2.866,2.866v3.631a2.869,2.869,0,0,0,2.866,2.866Zm-4.953-2.866v-3.631a.079.079,0,0,1,.079-.079h4.874a.079.079,0,0,1,.079.079v3.631a.079.079,0,0,1-.079.079h-4.874A.079.079,0,0,1,305.074,229.689Z" transform="translate(1180.347 896.623)"/>
    <path id="Path_81" data-name="Path 81" d="M379.5,223.192a2.869,2.869,0,0,0-2.866,2.866v3.631a2.869,2.869,0,0,0,2.866,2.866h4.874a2.869,2.869,0,0,0,2.866-2.866v-3.631a2.869,2.869,0,0,0-2.866-2.866Zm4.953,2.866v3.631a.079.079,0,0,1-.079.079H379.5a.079.079,0,0,1-.079-.079v-3.631a.079.079,0,0,1,.079-.079h4.874A.079.079,0,0,1,384.453,226.058Z" transform="translate(1119.813 896.623)"/>
    <path id="Path_82" data-name="Path 82" d="M238.546,294.5a2.869,2.869,0,0,0-2.866-2.866h-4.874a2.869,2.869,0,0,0-2.866,2.866v3.631A2.869,2.869,0,0,0,230.806,301h4.874a2.869,2.869,0,0,0,2.866-2.866Zm-2.787,3.631a.079.079,0,0,1-.079.078h-4.874a.079.079,0,0,1-.079-.078V294.5a.079.079,0,0,1,.079-.078h4.874a.079.079,0,0,1,.079.078Z" transform="translate(1240.879 840.895)"/>
    <path id="Path_83" data-name="Path 83" d="M164.2,294.5a2.869,2.869,0,0,0-2.866-2.866h-4.874a2.869,2.869,0,0,0-2.866,2.866v3.631A2.869,2.869,0,0,0,156.458,301h4.874a2.869,2.869,0,0,0,2.866-2.866Zm-2.787,3.631a.079.079,0,0,1-.078.078h-4.874a.079.079,0,0,1-.079-.078V294.5a.079.079,0,0,1,.079-.078h4.874a.078.078,0,0,1,.078.078Z" transform="translate(1301.411 840.895)"/>
    <path id="Path_84" data-name="Path 84" d="M89.851,294.5a2.869,2.869,0,0,0-2.866-2.866H82.111a2.869,2.869,0,0,0-2.866,2.866v3.631A2.869,2.869,0,0,0,82.111,301h4.874a2.869,2.869,0,0,0,2.866-2.866Zm-2.787,3.631a.079.079,0,0,1-.078.078H82.111a.078.078,0,0,1-.078-.078V294.5a.079.079,0,0,1,.078-.078h4.874a.078.078,0,0,1,.078.078Z" transform="translate(1361.943 840.895)"/>
    <path id="Path_85" data-name="Path 85" d="M235.68,360.082h-4.874a2.869,2.869,0,0,0-2.866,2.866v3.631a2.869,2.869,0,0,0,2.866,2.866h4.874a2.869,2.869,0,0,0,2.866-2.866v-3.631A2.869,2.869,0,0,0,235.68,360.082Zm.079,6.5a.079.079,0,0,1-.079.079h-4.874a.079.079,0,0,1-.079-.079v-3.631a.079.079,0,0,1,.079-.079h4.874a.079.079,0,0,1,.079.079Z" transform="translate(1240.879 785.169)"/>
    <path id="Path_86" data-name="Path 86" d="M161.332,360.082h-4.874a2.869,2.869,0,0,0-2.866,2.866v3.631a2.869,2.869,0,0,0,2.866,2.866h4.874a2.869,2.869,0,0,0,2.866-2.866v-3.631A2.869,2.869,0,0,0,161.332,360.082Zm.078,6.5a.079.079,0,0,1-.078.079h-4.874a.079.079,0,0,1-.079-.079v-3.631a.079.079,0,0,1,.079-.079h4.874a.078.078,0,0,1,.078.079Z" transform="translate(1301.411 785.169)"/>
    <path id="Path_87" data-name="Path 87" d="M86.985,360.082H82.111a2.869,2.869,0,0,0-2.866,2.866v3.631a2.869,2.869,0,0,0,2.866,2.866h4.874a2.869,2.869,0,0,0,2.866-2.866v-3.631A2.869,2.869,0,0,0,86.985,360.082Zm.078,6.5a.079.079,0,0,1-.078.079H82.111a.078.078,0,0,1-.078-.079v-3.631a.079.079,0,0,1,.078-.079h4.874a.078.078,0,0,1,.078.079Z" transform="translate(1361.943 785.169)"/>
    <path id="Path_88" data-name="Path 88" d="M327.719,309.325a18.834,18.834,0,1,0,18.834,18.834,18.856,18.856,0,0,0-18.834-18.834Zm0,34.881a16.047,16.047,0,1,1,16.047-16.047A16.065,16.065,0,0,1,327.719,344.206Z" transform="translate(1174.975 826.495)"/>
    <text id="_" data-name="₹" transform="translate(1498 1160)" font-size="17" font-family="NirmalaUI, Nirmala UI"><tspan x="0" y="0">₹</tspan></text>
  </g>
</svg>
