<svg id="Layer_1" data-name="Layer 1" xmlns="http://www.w3.org/2000/svg" viewBox="0 0 482.74 94.48"><defs><style>.cls-1{fill:#fc644f;}</style></defs><title>superinvestlogosvg</title><path class="cls-1" d="M8.63,225.83c2.64-1.38,5.34-2.67,7.91-4.17,10.41-6.08,20.78-12.24,31.21-18.29A3.89,3.89,0,0,1,50.9,203c6.06,3.38,12,7,18.49,10.76l-41,24.13L48.83,250,8.63,273.6Z" transform="translate(-8.63 -202.79)"/><path d="M491.37,273.6a45,45,0,0,1-6.19.59c-3.3-.14-5.18-1.91-5.88-5.16a18.63,18.63,0,0,1-.34-3.73c0-7.52,0-15,0-22.78l-4.25-.23v-4.67c4.48-.71,4.48-.71,5.05-5.47.18-1.49.4-3,.62-4.65h4.73v9.9h6.27v5h-6.19c0,6.88,0,13.53,0,20.18s-.29,6.6,6.19,7Z" transform="translate(-8.63 -202.79)"/><path class="cls-1" d="M30.16,286.07l40.83-24L50.53,250,90.1,226.68a20.84,20.84,0,0,1,.26,2.13c0,14.24,0,28.48,0,42.71A3.48,3.48,0,0,1,88.51,275q-18.44,10.75-36.78,21.64a3.51,3.51,0,0,1-4.13,0c-5.14-3.14-10.38-6.13-15.57-9.18C31.54,287.12,31.1,286.75,30.16,286.07Z" transform="translate(-8.63 -202.79)"/><path d="M110.76,258.25h9.6c1.42,5.57,3,7.14,8.92,7.55a23.5,23.5,0,0,0,8.14-.85,4.22,4.22,0,0,0,1-7.82,36.81,36.81,0,0,0-7.61-3.1c-3.63-1.26-7.39-2.2-10.94-3.62-5.8-2.32-8.4-6.47-8.23-12.45a10.59,10.59,0,0,1,4.7-8.72c7.22-5.09,21.38-5.06,28.65,0,3.72,2.61,5.07,6.24,4.9,10.81h-9.88c-.25-3.85-2.81-5.56-6.14-5.77a36.89,36.89,0,0,0-9.36.79,4.06,4.06,0,0,0-2.52,3,4.7,4.7,0,0,0,2.11,3.54,46.4,46.4,0,0,0,7.46,2.82c3.72,1.25,7.58,2.17,11.18,3.68,5,2.13,8.39,5.7,8.32,11.66s-2.66,10.29-8.3,12.49a31.33,31.33,0,0,1-23.28.1C113.05,269.83,109.76,264.34,110.76,258.25Z" transform="translate(-8.63 -202.79)"/><path d="M211.58,269.49v15.86h-9.42V237.51h7.89l.74,3.85c2.62-1.47,5.09-3.51,7.91-4.3,8.55-2.41,15.82,2.24,17.71,10.94a33.63,33.63,0,0,1-.08,15.2c-1.23,5.09-4,9.16-9.29,10.58s-10.48.71-14.52-3.66A7.55,7.55,0,0,0,211.58,269.49Zm15.88-14.09c-.17-1.47-.26-3.15-.59-4.78-.79-4-3.12-5.81-7.24-5.9-3.87-.09-6.66,1.68-7.39,5.39a34.3,34.3,0,0,0-.42,8.71c.3,4.62,2.94,7.16,7,7.32,5,.19,7.3-1.66,8.17-6.79C227.24,258.12,227.31,256.86,227.46,255.4Z" transform="translate(-8.63 -202.79)"/><path d="M276.06,257.6H252.4c-1,6.4,3.54,10.7,9.56,9.33a6,6,0,0,0,4.7-4.39c.2-.68,1-1.64,1.55-1.68,2.58-.18,5.17-.08,7.72-.08a10.61,10.61,0,0,1-5.51,11.12c-6.57,3.43-13.37,3.42-20.11.5a12.13,12.13,0,0,1-6.81-8.26,31,31,0,0,1,.07-17.6,12.39,12.39,0,0,1,7.41-8.35,21.43,21.43,0,0,1,16.88-.16c5.58,2.36,7.48,7.37,8.16,12.93A58.1,58.1,0,0,1,276.06,257.6Zm-23.66-6.28H266c.42-4.36-1.53-7.07-5.22-7.39C255.65,243.49,252.79,246,252.4,251.32Z" transform="translate(-8.63 -202.79)"/><path d="M191.83,273.46h-8l-.92-4.89c-3,3.29-6.08,5.27-10.11,5.74-8.48,1-13.81-3.56-13.85-12.06,0-8,0-16.07,0-24.11a2.76,2.76,0,0,1,.19-.62h9.33v18.09c0,1.17,0,2.35,0,3.52,0,4.47,1.58,6.52,5.24,6.89,4.18.43,7.67-1.92,8.36-5.84a32.45,32.45,0,0,0,.31-5.5c0-5.67,0-11.34,0-17.17h9.36Z" transform="translate(-8.63 -202.79)"/><path d="M435.74,257.08h-27c-.63,6.34,2.75,11.2,8.19,12,7.42,1.15,11.4-1.24,12.81-7.8h5.69a11,11,0,0,1-4.28,9.6c-5.88,4.69-17.56,4.88-23.31,0a16.3,16.3,0,0,1-4.47-6.74,28.07,28.07,0,0,1-.24-17.06c1.45-5.29,4.91-8.91,10.32-9.81a36.11,36.11,0,0,1,11.41-.17c5.85.93,9.08,5.07,10.09,10.77C435.45,250.78,435.46,253.72,435.74,257.08Zm-6.91-5.16c.57-6.27-2.78-10.2-8.76-10.41-7.12-.26-11.36,3.66-11.18,10.41Z" transform="translate(-8.63 -202.79)"/><path d="M440.68,262.39h5.57c1.59,6.66,11,9.59,16.21,5.16,2.19-1.87,2.42-5,.13-6.76a19.47,19.47,0,0,0-5.54-2.73c-2.91-1-6-1.63-8.88-2.66-4.64-1.65-6.69-4.45-6.67-8.67s2.39-7.34,6.83-8.9c5.33-1.88,10.66-2,15.87.47a9.24,9.24,0,0,1,5.32,6.87c.38,1.9-.09,2.92-2.26,2.66a26.36,26.36,0,0,0-3.2,0c-2.41-5.73-6.29-7.54-12.39-5.83-2.11.58-3.61,1.89-3.82,4.15s1.23,3.48,3,4.12c2.91,1,5.92,1.76,8.88,2.67a38.86,38.86,0,0,1,4.72,1.67c3.5,1.6,5.88,4.11,6,8.22s-1.34,7.67-5.27,9.5a22.09,22.09,0,0,1-19.18.14C441.85,270.53,440.12,267,440.68,262.39Z" transform="translate(-8.63 -202.79)"/><path d="M359.58,273.51h-5.91V249.88c0-3.21-.24-6.29-3.8-7.72A10.22,10.22,0,0,0,339,244.57c-2.21,2.37-2.75,5.27-2.75,8.36,0,5.87,0,11.73,0,17.59v2.91h-6V237.52h4.52l.79,4.45.68.56a10.94,10.94,0,0,1,1.27-2.06c4-4,11.79-5.19,16.87-2.75a8.44,8.44,0,0,1,5.15,7.51C359.73,254.58,359.58,264,359.58,273.51Z" transform="translate(-8.63 -202.79)"/><path d="M283.87,237.44h7.88l1.07,6.13c2.47-5.62,5.93-8.4,11.82-6.46V246c-1.2,0-2.34-.05-3.49,0-4.22.23-6.75,2.24-7.46,6.41a51.15,51.15,0,0,0-.43,7.74c-.06,4.35,0,8.71,0,13.27h-9.38Z" transform="translate(-8.63 -202.79)"/><path d="M398.4,237.36c-4.43,11.86-8.67,23.3-13,34.7a2.92,2.92,0,0,1-2.09,1.48c-4.47.33-4.47.26-6.08-4.09q-5.55-14.92-11.12-29.85c-.23-.62-.41-1.25-.73-2.23a32.64,32.64,0,0,1,5.37.09c.69.12,1.46,1.2,1.74,2,3,8.51,5.92,17.06,8.87,25.6.16.47.36.93.72,1.83,1.31-4,2.45-7.6,3.69-11.18,1.81-5.22,3.79-10.38,5.47-15.63.67-2.08,1.58-3.12,3.85-2.75A21.21,21.21,0,0,0,398.4,237.36Z" transform="translate(-8.63 -202.79)"/><path d="M318.87,226.49v47H312.5v-47Z" transform="translate(-8.63 -202.79)"/></svg>