<svg xmlns="http://www.w3.org/2000/svg" width="111.205" height="102.002" viewBox="0 0 111.205 102.002">
  <g id="Group_828" data-name="Group 828" transform="translate(12677.886 -4877.999)">
    <g id="Group_9" data-name="Group 9" transform="translate(-12677.886 4877.999)">
      <path id="Path_113" data-name="Path 113" d="M96.264,35.054a50.992,50.992,0,0,0-72.577.458,2.751,2.751,0,1,0,3.935,3.844A45.5,45.5,0,1,1,14.7,71.114v-.572l4.53,4.53a2.755,2.755,0,0,0,1.945.8,2.8,2.8,0,0,0,1.945-.8,2.748,2.748,0,0,0,0-3.89l-9.2-9.221a2.748,2.748,0,0,0-3.89,0L.807,71.182a2.75,2.75,0,0,0,3.89,3.89l4.53-4.53v.572a51,51,0,0,0,87.061,36.06,51.013,51.013,0,0,0-.023-72.12Z" transform="translate(0 -20.113)"/>
      <path id="Path_114" data-name="Path 114" d="M210.533,159.185l-33.726,33.7a2.746,2.746,0,0,0,1.945,4.69,2.8,2.8,0,0,0,1.945-.8l33.726-33.726a2.742,2.742,0,1,0-3.89-3.867Z" transform="translate(-135.73 -126.74)"/>
      <path id="Path_115" data-name="Path 115" d="M278.666,251.4a9.832,9.832,0,1,0,6.956-2.883A9.846,9.846,0,0,0,278.666,251.4Zm10.022,10.022a4.27,4.27,0,0,1-3.066,1.258,4.325,4.325,0,0,1-3.066-7.39,4.271,4.271,0,0,1,3.066-1.258,4.324,4.324,0,0,1,3.066,7.39Z" transform="translate(-212.695 -196.254)"/>
      <path id="Path_116" data-name="Path 116" d="M174.764,151.213a9.843,9.843,0,1,0,6.956,2.883A9.779,9.779,0,0,0,174.764,151.213Zm3.066,12.9a4.27,4.27,0,0,1-3.066,1.258,4.366,4.366,0,0,1-3.066-1.258,4.271,4.271,0,0,1-1.258-3.066,4.366,4.366,0,0,1,1.258-3.066,4.27,4.27,0,0,1,3.066-1.258,4.366,4.366,0,0,1,3.066,1.258,4.364,4.364,0,0,1,0,6.132Z" transform="translate(-127.189 -121.217)"/>
    </g>
  </g>
</svg>
