<svg xmlns="http://www.w3.org/2000/svg" width="87.542" height="102.001" viewBox="0 0 87.542 102.001">
  <g id="Group_827" data-name="Group 827" transform="translate(12537.233 -4876.487)">
    <g id="Group_403" data-name="Group 403" transform="translate(-12490.612 4902.673)">
      <g id="Group_402" data-name="Group 402">
        <path id="Path_1460" data-name="Path 1460" d="M292.989,165.365V128.819a1.951,1.951,0,0,0-2.064-1.919h-7.986a2.005,2.005,0,0,0-2.125,1.919v32.976a19.263,19.263,0,0,0-3.921.516v-22.72a2.02,2.02,0,0,0-2.1-1.96H266.8a1.989,1.989,0,0,0-2.084,1.96V170.4a20.256,20.256,0,0,0-3.756,11.845,20.46,20.46,0,1,0,32.027-16.88Zm-8.048-34.338h3.921v32.15a18.389,18.389,0,0,0-3.921-1.073Zm-16.1,10.731h3.921v21.977a21.013,21.013,0,0,0-3.921,2.352Zm26.641,48.8a16.325,16.325,0,1,1-20.285-23.4,1.96,1.96,0,0,0,.681-.268,16.015,16.015,0,0,1,5.572-.99c.433,0,.846.021,1.279.062h.021a15.943,15.943,0,0,1,7.016,2.229A16.32,16.32,0,0,1,295.486,190.561Z" transform="translate(-260.962 -126.9)"/>
      </g>
    </g>
    <g id="Group_407" data-name="Group 407" transform="translate(-12519.254 4929.912)">
      <g id="Group_406" data-name="Group 406">
        <path id="Path_1462" data-name="Path 1462" d="M132.274,258.9h-8.048a2.07,2.07,0,0,0-2.064,2.064v32.4a2.07,2.07,0,0,0,2.064,2.063h8.048a2.07,2.07,0,0,0,2.064-2.063v-32.4A2.07,2.07,0,0,0,132.274,258.9Zm-2.064,32.6H126.29V263.027h3.921Z" transform="translate(-122.163 -258.9)"/>
      </g>
    </g>
    <g id="Group_409" data-name="Group 409" transform="translate(-12502.953 4925.166)">
      <g id="Group_408" data-name="Group 408">
        <path id="Path_1463" data-name="Path 1463" d="M211.275,235.9h-8.048a2.07,2.07,0,0,0-2.064,2.064v37.351a2.07,2.07,0,0,0,2.064,2.064h8.048a2.07,2.07,0,0,0,2.064-2.064V237.964A2.07,2.07,0,0,0,211.275,235.9Zm-2.064,37.351H205.29V240.027h3.921Z" transform="translate(-201.163 -235.9)"/>
      </g>
    </g>
    <g id="Group_411" data-name="Group 411" transform="translate(-12535.558 4947.658)">
      <g id="Group_410" data-name="Group 410" transform="translate(0)">
        <path id="Path_1464" data-name="Path 1464" d="M53.275,344.9H45.227a2.07,2.07,0,0,0-2.064,2.064v14.651a2.07,2.07,0,0,0,2.064,2.064h8.048a2.07,2.07,0,0,0,2.064-2.064V346.964A2.07,2.07,0,0,0,53.275,344.9Zm-2.064,14.858H47.29v-10.73h3.921Z" transform="translate(-43.163 -344.9)"/>
      </g>
    </g>
    <g id="Group_413" data-name="Group 413" transform="translate(-12537.233 4876.487)">
      <g id="Group_412" data-name="Group 412">
        <path id="Path_1465" data-name="Path 1465" d="M113.376,0,99.261.021a2.064,2.064,0,1,0-.041,4.127h.041l9.142-.021L86.013,26.434l-7.821-7.759a2.269,2.269,0,0,0-2.93,0L35.642,58.3a2.058,2.058,0,0,0,2.93,2.889L76.748,23.009l7.821,7.883a2.066,2.066,0,0,0,1.465.66,2.194,2.194,0,0,0,1.465-.66L111.313,7.057l-.021,9.183a2.064,2.064,0,1,0,4.127,0l.021-14.156A2.087,2.087,0,0,0,113.376,0Z" transform="translate(-35.038)"/>
      </g>
    </g>
    <text id="_" data-name="₹" transform="translate(-12477.152 4967.547)" font-size="25" font-family="NirmalaUI-Bold, Nirmala UI" font-weight="700"><tspan x="0" y="0">₹</tspan></text>
  </g>
</svg>
