<svg width="82" height="82" viewBox="0 0 82 82" fill="none" xmlns="http://www.w3.org/2000/svg">
<circle cx="41" cy="41" r="40" fill="url(#paint0_linear)" stroke="#111111" stroke-linecap="round"/>
<g clip-path="url(#clip0)">
<path d="M52.7529 31.9573H47.1326C46.8118 28.8594 45.1412 25.9829 42.6961 24.2127H52.7529C53.3614 24.2127 53.8593 23.7149 53.8593 23.1064C53.8593 22.4979 53.3614 22 52.7529 22H29.3423C28.7338 22 28.236 22.4979 28.236 23.1064C28.236 23.7149 28.7338 24.2127 29.3423 24.2127H36.0469C40.6051 24.2127 44.3667 27.6424 44.9088 31.9573H29.3423C28.7338 31.9573 28.236 32.4551 28.236 33.0636C28.236 33.6721 28.7338 34.17 29.3423 34.17H44.9088C44.3556 38.6507 40.5498 42.0141 36.0469 42.0251H29.3534C28.7338 42.0362 28.236 42.5451 28.247 43.1647C28.247 43.4634 28.3798 43.7511 28.59 43.9613L45.3292 59.7933C45.7718 60.2137 46.4688 60.1916 46.8892 59.7491C47.3096 59.2955 47.2875 58.5984 46.845 58.167L32.1193 44.2379H36.0358C41.811 44.2379 46.5794 39.8124 47.1326 34.17H52.7529C53.3614 34.17 53.8593 33.6721 53.8593 33.0636C53.8593 32.4551 53.3614 31.9573 52.7529 31.9573Z" fill="#111111"/>
</g>
<path d="M60.1464 59.6464C59.9512 59.8417 59.9512 60.1583 60.1464 60.3536L63.3284 63.5355C63.5237 63.7308 63.8403 63.7308 64.0355 63.5355C64.2308 63.3403 64.2308 63.0237 64.0355 62.8284L61.2071 60L64.0355 57.1716C64.2308 56.9763 64.2308 56.6597 64.0355 56.4645C63.8403 56.2692 63.5237 56.2692 63.3284 56.4645L60.1464 59.6464ZM60.5 60.5H69.5V59.5H60.5V60.5ZM69.5 80.5H42V81.5H69.5V80.5ZM79.5 70.5C79.5 76.0228 75.0228 80.5 69.5 80.5V81.5C75.5751 81.5 80.5 76.5751 80.5 70.5H79.5ZM69.5 60.5C75.0228 60.5 79.5 64.9772 79.5 70.5H80.5C80.5 64.4249 75.5751 59.5 69.5 59.5V60.5Z" fill="#111111"/>
<defs>
<linearGradient id="paint0_linear" x1="80.9999" y1="1.00004" x2="104.443" y2="51.6175" gradientUnits="userSpaceOnUse">
<stop stop-color="#F6E4EB"/>
<stop offset="1" stop-color="#F6E4EB" stop-opacity="0"/>
</linearGradient>
<clipPath id="clip0">
<rect width="38.0952" height="38.0952" fill="white" transform="translate(22 22)"/>
</clipPath>
</defs>
</svg>
