<svg xmlns="http://www.w3.org/2000/svg" width="110.895" height="102.488" viewBox="0 0 110.895 102.488">
  <g id="Group_826" data-name="Group 826" transform="translate(-1426.463 -1078.512)">
    <text id="_" data-name="₹" transform="translate(1510.48 1173.092)" font-size="25" font-family="NirmalaUI-Bold, Nirmala UI" font-weight="700"><tspan x="0" y="0">₹</tspan></text>
    <path id="Path_74" data-name="Path 74" d="M78.675,381.012,9.914,380.8A6.642,6.642,0,0,1,3.28,374.17l-.126-22.631a1.621,1.621,0,1,0-3.243,0L.037,374.17a9.888,9.888,0,0,0,9.877,9.877l68.76.208a1.621,1.621,0,0,0,0-3.243Z" transform="translate(1426.552 796.593)"/>
    <path id="Path_75" data-name="Path 75" d="M101.018,7.936H96.284V5.829a4.759,4.759,0,1,0-9.514,0V7.936H81.843V5.829a4.759,4.759,0,1,0-9.514,0V7.936H67.4V5.829a4.759,4.759,0,1,0-9.514,0V7.936H52.961V5.829a4.759,4.759,0,1,0-9.514,0V7.936H38.52V5.829a4.759,4.759,0,1,0-9.514,0V7.936H24.079V5.829a4.759,4.759,0,1,0-9.514,0V7.936H9.877A10.058,10.058,0,0,0,0,18.145V75.256a1.649,1.649,0,0,0,1.621,1.676,1.649,1.649,0,0,0,1.621-1.676V27.429H107.652V74.8a1.622,1.622,0,1,0,3.243,0V18.145a10.058,10.058,0,0,0-9.877-10.209Zm-11-2.108a1.515,1.515,0,1,1,3.028,0V13.4a1.515,1.515,0,1,1-3.028,0Zm-14.441,0a1.515,1.515,0,1,1,3.028,0V13.4a1.515,1.515,0,1,1-3.028,0Zm-14.441,0a1.515,1.515,0,1,1,3.028,0V13.4a1.515,1.515,0,1,1-3.028,0Zm-14.441,0a1.515,1.515,0,1,1,3.028,0V13.4a1.515,1.515,0,1,1-3.028,0Zm-14.441,0a1.515,1.515,0,1,1,3.028,0V13.4a1.515,1.515,0,1,1-3.028,0Zm-14.441,0a1.515,1.515,0,1,1,3.028,0V13.4a1.515,1.515,0,1,1-3.028,0ZM3.243,24.077V18.145a6.756,6.756,0,0,1,6.634-6.857h4.688V13.4a4.759,4.759,0,1,0,9.514,0V11.288h4.927V13.4a4.759,4.759,0,1,0,9.514,0V11.288h4.927V13.4a4.759,4.759,0,1,0,9.514,0V11.288h4.927V13.4a4.759,4.759,0,1,0,9.514,0V11.288h4.927V13.4a4.759,4.759,0,1,0,9.514,0V11.288H86.77V13.4a4.759,4.759,0,1,0,9.514,0V11.288h4.734a6.756,6.756,0,0,1,6.634,6.857v5.932Z" transform="translate(1426.463 1077.6)"/>
    <path id="Path_76" data-name="Path 76" d="M139.377,147.045v-5.773a4.145,4.145,0,0,0-4.14-4.14H54.319a4.145,4.145,0,0,0-4.14,4.14v5.773a4.145,4.145,0,0,0,4.14,4.14H71.89a1.621,1.621,0,1,0,0-3.243H54.319a.9.9,0,0,1-.9-.9v-5.773a.9.9,0,0,1,.9-.9h80.917a.9.9,0,0,1,.9.9v5.773a.9.9,0,0,1-.9.9H72a1.621,1.621,0,0,0,0,3.243h63.241A4.145,4.145,0,0,0,139.377,147.045Z" transform="translate(1387.132 971.676)"/>
    <path id="Path_77" data-name="Path 77" d="M240.279,226.526a3.338,3.338,0,0,0-3.334-3.334h-5.671a3.338,3.338,0,0,0-3.334,3.334v4.224a3.338,3.338,0,0,0,3.334,3.334h5.671a3.338,3.338,0,0,0,3.334-3.334Zm-3.243,4.224a.091.091,0,0,1-.091.091h-5.671a.091.091,0,0,1-.091-.091v-4.224a.091.091,0,0,1,.091-.091h5.671a.091.091,0,0,1,.091.091Z" transform="translate(1247.801 904.707)"/>
    <path id="Path_78" data-name="Path 78" d="M165.931,226.526a3.338,3.338,0,0,0-3.334-3.334h-5.671a3.338,3.338,0,0,0-3.334,3.334v4.224a3.338,3.338,0,0,0,3.334,3.334H162.6a3.338,3.338,0,0,0,3.334-3.334Zm-3.243,4.224a.091.091,0,0,1-.091.091h-5.671a.091.091,0,0,1-.091-.091v-4.224a.091.091,0,0,1,.091-.091H162.6a.091.091,0,0,1,.091.091Z" transform="translate(1306.076 904.707)"/>
    <path id="Path_79" data-name="Path 79" d="M91.584,226.526a3.338,3.338,0,0,0-3.334-3.334H82.579a3.338,3.338,0,0,0-3.334,3.334v4.224a3.338,3.338,0,0,0,3.334,3.334H88.25a3.338,3.338,0,0,0,3.334-3.334Zm-3.243,4.224a.091.091,0,0,1-.091.091H82.579a.091.091,0,0,1-.091-.091v-4.224a.091.091,0,0,1,.091-.091H88.25a.091.091,0,0,1,.091.091Z" transform="translate(1364.35 904.707)"/>
    <path id="Path_80" data-name="Path 80" d="M311.292,234.085a3.338,3.338,0,0,0,3.334-3.334v-4.224a3.338,3.338,0,0,0-3.334-3.334h-5.671a3.338,3.338,0,0,0-3.334,3.334v4.224a3.338,3.338,0,0,0,3.334,3.334Zm-5.762-3.334v-4.224a.091.091,0,0,1,.091-.091h5.671a.092.092,0,0,1,.091.091v4.224a.092.092,0,0,1-.091.091h-5.671A.091.091,0,0,1,305.53,230.75Z" transform="translate(1189.527 904.707)"/>
    <path id="Path_81" data-name="Path 81" d="M379.969,223.192a3.338,3.338,0,0,0-3.334,3.334v4.224a3.338,3.338,0,0,0,3.334,3.334h5.671a3.338,3.338,0,0,0,3.334-3.334v-4.224a3.338,3.338,0,0,0-3.334-3.334Zm5.762,3.334v4.224a.091.091,0,0,1-.091.091h-5.671a.092.092,0,0,1-.092-.091v-4.224a.092.092,0,0,1,.092-.091h5.671A.092.092,0,0,1,385.731,226.526Z" transform="translate(1131.251 904.707)"/>
    <path id="Path_82" data-name="Path 82" d="M240.279,294.972a3.338,3.338,0,0,0-3.334-3.334h-5.671a3.338,3.338,0,0,0-3.334,3.334V299.2a3.338,3.338,0,0,0,3.334,3.334h5.671a3.338,3.338,0,0,0,3.334-3.334Zm-3.243,4.224a.091.091,0,0,1-.091.091h-5.671a.091.091,0,0,1-.091-.091v-4.224a.091.091,0,0,1,.091-.091h5.671a.091.091,0,0,1,.091.091Z" transform="translate(1247.801 851.469)"/>
    <path id="Path_83" data-name="Path 83" d="M165.931,294.972a3.338,3.338,0,0,0-3.334-3.334h-5.671a3.338,3.338,0,0,0-3.334,3.334V299.2a3.338,3.338,0,0,0,3.334,3.334H162.6a3.338,3.338,0,0,0,3.334-3.334Zm-3.243,4.224a.091.091,0,0,1-.091.091h-5.671a.091.091,0,0,1-.091-.091v-4.224a.091.091,0,0,1,.091-.091H162.6a.091.091,0,0,1,.091.091Z" transform="translate(1306.076 851.469)"/>
    <path id="Path_84" data-name="Path 84" d="M91.584,294.972a3.338,3.338,0,0,0-3.334-3.334H82.579a3.338,3.338,0,0,0-3.334,3.334V299.2a3.338,3.338,0,0,0,3.334,3.334H88.25a3.338,3.338,0,0,0,3.334-3.334ZM88.341,299.2a.091.091,0,0,1-.091.091H82.579a.091.091,0,0,1-.091-.091v-4.224a.091.091,0,0,1,.091-.091H88.25a.091.091,0,0,1,.091.091Z" transform="translate(1364.35 851.469)"/>
    <path id="Path_85" data-name="Path 85" d="M236.945,360.082h-5.671a3.338,3.338,0,0,0-3.334,3.334v4.224a3.338,3.338,0,0,0,3.334,3.334h5.671a3.338,3.338,0,0,0,3.334-3.334v-4.224A3.338,3.338,0,0,0,236.945,360.082Zm.091,7.558a.091.091,0,0,1-.091.091h-5.671a.091.091,0,0,1-.091-.091v-4.224a.091.091,0,0,1,.091-.091h5.671a.091.091,0,0,1,.091.091Z" transform="translate(1247.801 798.551)"/>
    <path id="Path_86" data-name="Path 86" d="M162.6,360.082h-5.671a3.338,3.338,0,0,0-3.334,3.334v4.224a3.338,3.338,0,0,0,3.334,3.334H162.6a3.338,3.338,0,0,0,3.334-3.334v-4.224A3.338,3.338,0,0,0,162.6,360.082Zm.091,7.558a.091.091,0,0,1-.091.091h-5.671a.091.091,0,0,1-.091-.091v-4.224a.091.091,0,0,1,.091-.091H162.6a.091.091,0,0,1,.091.091Z" transform="translate(1306.076 798.551)"/>
    <path id="Path_87" data-name="Path 87" d="M88.25,360.082H82.579a3.338,3.338,0,0,0-3.334,3.334v4.224a3.338,3.338,0,0,0,3.334,3.334H88.25a3.338,3.338,0,0,0,3.334-3.334v-4.224A3.338,3.338,0,0,0,88.25,360.082Zm.091,7.558a.091.091,0,0,1-.091.091H82.579a.091.091,0,0,1-.091-.091v-4.224a.091.091,0,0,1,.091-.091H88.25a.091.091,0,0,1,.091.091Z" transform="translate(1364.35 798.551)"/>
    <path id="Path_88" data-name="Path 88" d="M327.293,309.325A18.408,18.408,0,1,0,345.7,327.733a18.429,18.429,0,0,0-18.408-18.408Zm0,34.092a15.684,15.684,0,1,1,15.684-15.684A15.7,15.7,0,0,1,327.293,343.417Z" transform="translate(1190.186 834.858)"/>
  </g>
</svg>
