<svg width="96" height="80" viewBox="0 0 96 80" fill="none" xmlns="http://www.w3.org/2000/svg">
<circle cx="32" cy="40" r="31.5" fill="white" stroke="#111111"/>
<circle cx="64" cy="40" r="31.5" fill="white" stroke="#111111"/>
<mask id="path-3-inside-1" fill="white">
<path fill-rule="evenodd" clip-rule="evenodd" d="M48 67.4379C57.5648 61.905 64 51.5635 64 39.719C64 27.8745 57.5648 17.533 48 12C38.4352 17.533 32 27.8745 32 39.719C32 51.5635 38.4352 61.905 48 67.4379Z"/>
</mask>
<path fill-rule="evenodd" clip-rule="evenodd" d="M48 67.4379C57.5648 61.905 64 51.5635 64 39.719C64 27.8745 57.5648 17.533 48 12C38.4352 17.533 32 27.8745 32 39.719C32 51.5635 38.4352 61.905 48 67.4379Z" fill="#D5EBE3"/>
<path d="M48 67.4379L47.4993 68.3035L48 68.5932L48.5007 68.3035L48 67.4379ZM48 12L48.5007 11.1344L48 10.8447L47.4993 11.1344L48 12ZM63 39.719C63 51.1921 56.7678 61.2108 47.4993 66.5723L48.5007 68.3035C58.3618 62.5992 65 51.9349 65 39.719H63ZM47.4993 12.8656C56.7678 18.2272 63 28.2459 63 39.719H65C65 27.5031 58.3618 16.8387 48.5007 11.1344L47.4993 12.8656ZM33 39.719C33 28.2459 39.2322 18.2272 48.5007 12.8656L47.4993 11.1344C37.6382 16.8387 31 27.5031 31 39.719H33ZM48.5007 66.5723C39.2322 61.2108 33 51.1921 33 39.719H31C31 51.9349 37.6382 62.5992 47.4993 68.3035L48.5007 66.5723Z" fill="black" mask="url(#path-3-inside-1)"/>
</svg>
